<?xml version="1.0" encoding="iso-8859-1"?>
<!-- Generator: Adobe Illustrator 19.0.0, SVG Export Plug-In . SVG Version: 6.00 Build 0)  -->
<svg xmlns="http://www.w3.org/2000/svg" xmlns:xlink="http://www.w3.org/1999/xlink" version="1.1" id="Capa_1" x="0px" y="0px" viewBox="0 0 455 455" style="enable-background:new 0 0 455 455;" xml:space="preserve" width="512" height="512">
<g>
	<polygon style="fill:#185F8D;" points="335,0 295,227.5 335,455 425,455 425,355.001 405,329.47 425,305.001 425,0  "/>
	<path style="fill:#185F8D;" d="M395,275c16.5,0,30,13.5,30,30v-60h-30V275z"/>
	<path style="fill:#FFCC75;" d="M425,135h-30V30h-30l-20,197.5L365,425h30V245h30c16.5,0,30-13.5,30-30v-50   C455,148.5,441.5,135,425,135z"/>
	<path style="fill:#F2EBD9;" d="M395,275h-30V30h-50v395h50v-40h30c16.5,0,30-13.5,30-30v-50C425,288.5,411.5,275,395,275z"/>
	<rect x="40" style="fill:#6DA8D6;" width="295" height="455"/>
	<path style="fill:#98D9D5;" d="M65,392.5H15c-8.284,0-15,6.716-15,15s6.716,15,15,15h50c8.284,0,15-6.716,15-15   S73.284,392.5,65,392.5z"/>
	<path style="fill:#98D9D5;" d="M65,272.5H15c-8.284,0-15,6.716-15,15s6.716,15,15,15h50c8.284,0,15-6.716,15-15   S73.284,272.5,65,272.5z"/>
	<path style="fill:#98D9D5;" d="M65,152.5H15c-8.284,0-15,6.716-15,15s6.716,15,15,15h50c8.284,0,15-6.716,15-15   S73.284,152.5,65,152.5z"/>
	<path style="fill:#98D9D5;" d="M65,32.5H15c-8.284,0-15,6.716-15,15s6.716,15,15,15h50c8.284,0,15-6.716,15-15S73.284,32.5,65,32.5   z"/>
</g>















</svg>
