<?xml version="1.0" encoding="iso-8859-1"?>
<!-- Generator: Adobe Illustrator 19.0.0, SVG Export Plug-In . SVG Version: 6.00 Build 0)  -->
<svg xmlns="http://www.w3.org/2000/svg" xmlns:xlink="http://www.w3.org/1999/xlink" version="1.1" id="Capa_1" x="0px" y="0px" viewBox="0 0 454.996 454.996" style="enable-background:new 0 0 454.996 454.996;" xml:space="preserve" width="512" height="512">
<g>
	<path style="fill:#FF6E1D;" d="M446.525,8.472l-70.711,84.853L302.459,5.827C350.118-2.743,399.141-1.859,446.525,8.472z"/>
	<path style="fill:#FF6E1D;" d="M267.959,13.754c-58.676,16.476-114.063,47.808-160.23,93.975S30.23,209.283,13.74,267.959   c0.014,0,86.656,100.784,86.656,100.784l268.347-268.347L267.959,13.754z"/>
	<path style="fill:#FF6E1D;" d="M93.325,375.814L8.472,446.525c-10.331-47.383-11.215-96.407-2.645-144.066L93.325,375.814z"/>
	<path style="fill:#F2484B;" d="M449.169,152.538l-80.426-66.284l77.782-77.782C456.855,55.855,457.739,104.879,449.169,152.538z"/>
	<path style="fill:#F2484B;" d="M86.254,368.743l66.284,80.426c-47.659,8.57-96.683,7.686-144.066-2.645L86.254,368.743z"/>
	<path style="fill:#F2484B;" d="M441.256,187.038c-0.014,0-79.585-93.713-79.585-93.713L93.325,361.672l93.713,79.571   c58.676-16.476,114.063-47.807,160.23-93.975S424.767,245.713,441.256,187.038z"/>
	<path style="fill:#FFFFFF;" d="M264.621,232.801c2.93,2.929,7.678,2.929,10.607,0c2.928-2.93,2.928-7.678,0-10.607l-15.909-15.909   l31.819-31.819l15.909,15.909c2.93,2.929,7.678,2.929,10.607,0c2.928-2.93,2.928-7.678,0-10.607l-15.909-15.909l1.768-1.768   c2.929-2.93,2.928-7.677,0-10.607c-2.93-2.928-7.678-2.928-10.607,0l-1.768,1.768l-15.909-15.909c-2.93-2.928-7.678-2.928-10.607,0   c-2.929,2.93-2.929,7.678,0,10.607l15.909,15.909l-31.819,31.819l-15.909-15.909c-2.93-2.928-7.678-2.928-10.607,0   c-2.929,2.93-2.929,7.678,0,10.607l15.909,15.909l-31.819,31.819l-15.909-15.909c-2.93-2.928-7.678-2.928-10.607,0   c-2.929,2.93-2.929,7.678,0,10.607l15.909,15.909l-31.819,31.819l-15.909-15.909c-2.93-2.928-7.678-2.928-10.607,0   c-2.929,2.93-2.929,7.678,0,10.607l15.909,15.909l-1.768,1.768c-2.929,2.93-2.928,7.677,0,10.607   c1.465,1.464,3.385,2.196,5.304,2.196c1.919,0,3.839-0.732,5.304-2.196l1.768-1.768l15.909,15.909c2.93,2.929,7.678,2.929,10.607,0   c2.928-2.93,2.928-7.678,0-10.607l-15.909-15.909l31.819-31.819l15.909,15.909c2.93,2.929,7.678,2.929,10.607,0   c2.928-2.93,2.928-7.678,0-10.607l-15.909-15.909l31.819-31.819L264.621,232.801z"/>
	<circle style="fill:#F2484B;" cx="78.587" cy="226.022" r="7.5"/>
	<circle style="fill:#F2484B;" cx="78.587" cy="268.449" r="7.5"/>
	<path style="fill:#F2EBD9;" d="M187.038,441.242L13.754,267.959c-3.217,11.392-5.855,22.896-7.927,34.5l146.71,146.711   C164.141,447.097,175.646,444.46,187.038,441.242z"/>
	<path style="fill:#F2EBD9;" d="M449.169,152.538L302.459,5.827c-11.604,2.072-23.108,4.709-34.5,7.913   c0,0.014,173.284,173.298,173.284,173.298C444.46,175.646,447.097,164.141,449.169,152.538z"/>
</g>















</svg>
