<?xml version="1.0" encoding="iso-8859-1"?>
<!-- Generator: Adobe Illustrator 19.0.0, SVG Export Plug-In . SVG Version: 6.00 Build 0)  -->
<svg xmlns="http://www.w3.org/2000/svg" xmlns:xlink="http://www.w3.org/1999/xlink" version="1.1" id="Capa_1" x="0px" y="0px" viewBox="0 0 454.999 454.999" style="enable-background:new 0 0 454.999 454.999;" xml:space="preserve" width="512" height="512">
<g>
	<path style="fill:#274B6D;" d="M193.449,69.518c-2.929-2.928-7.677-2.929-10.607,0.001c-2.929,2.929-2.928,7.678,0,10.606   c23.96,23.959,37.156,55.813,37.156,89.696v30h15v-30C234.999,131.932,220.243,96.31,193.449,69.518z"/>
	<path style="fill:#6DA8D6;" d="M351.519,3.889l-52.315,34.63l-52.315,70c28.71,9.091,61.36,2.28,84.13-20.489   C353.789,65.26,360.599,32.61,351.519,3.889z"/>
	<path style="fill:#F2484B;" d="M330.109,154.71c-35.57-14.729-74.73-7.63-102.61,15.11c-27.88-22.74-67.04-29.84-102.61-15.11   c-50.08,20.75-74.62,77.13-56.38,127.6c6.39,17.69,70.84,142.341,70.84,142.341c13.3,25.67,44.28,37.319,71.49,26.05   c6.32-2.62,11.91-6.26,16.66-10.65c4.75,4.391,10.34,8.03,16.66,10.65c27.21,11.27,58.2-0.38,71.49-26.061   c0,0,64.45-124.64,70.84-142.319C404.729,231.849,380.199,175.46,330.109,154.71z"/>
	<circle style="fill:#BD1515;" cx="111.499" cy="226.5" r="7.5"/>
	<circle style="fill:#BD1515;" cx="141.499" cy="196.5" r="7.5"/>
	<circle style="fill:#BD1515;" cx="293.499" cy="369.5" r="7.5"/>
	<path style="fill:#98D9D5;" d="M351.519,3.89l-104.63,104.63c-9.09-28.71-2.28-61.36,20.49-84.13   C290.149,1.62,322.799-5.19,351.519,3.89z"/>
</g>















</svg>
