<?xml version="1.0" encoding="iso-8859-1"?>
<!-- Generator: Adobe Illustrator 19.0.0, SVG Export Plug-In . SVG Version: 6.00 Build 0)  -->
<svg xmlns="http://www.w3.org/2000/svg" xmlns:xlink="http://www.w3.org/1999/xlink" version="1.1" id="Capa_1" x="0px" y="0px" viewBox="0 0 455 455" style="enable-background:new 0 0 455 455;" xml:space="preserve" width="512" height="512">
<g>
	<path style="fill:#A7CBE6;" d="M455,30.328c0-16.57-13.43-30-30-30c-56.28,0-105.3,31-130.96,76.84   c12.13,6.01,23.33,13.62,33.32,22.55c16.87-32.43,49.44-55.46,87.58-58.93C414.94,40.797,455,30.328,455,30.328z"/>
	<path style="fill:#6DA8D6;" d="M414.94,40.797c-1,84.2-14.04,165.561-37.44,242.45l-20,115.09h20   c49.82-112.529,77.5-237.03,77.5-368.01L414.94,40.797z"/>
	<path style="fill:#A7CBE6;" d="M30,0.328c-16.57,0-30,13.43-30,30l40.06,10.47c38.14,3.46,70.71,26.49,87.58,58.92   c9.99-8.93,21.19-16.54,33.32-22.55C135.3,31.328,86.28,0.328,30,0.328z"/>
	<path style="fill:#6DA8D6;" d="M40.06,40.797L0,30.328c0,130.98,27.68,255.48,77.5,368.01h20l-20-115.09   C54.1,206.358,41.06,124.998,40.06,40.797z"/>
	<path style="fill:#FFCC75;" d="M227.5,60.983c-82.84,0-150,67.16-150,150v213.689c0,16.5,13.5,30,30,30h240c16.5,0,30-13.5,30-30   V210.983C377.5,128.143,310.34,60.983,227.5,60.983z"/>
	<path style="fill:#F2484B;" d="M317.5,300.328v80c0,8.25-6.75,15-15,15h-150c-8.25,0-15-6.75-15-15v-80H317.5z"/>
	<path style="fill:#6DA8D6;" d="M197.5,64.642v-4.314c0-16.542,13.458-30,30-30s30,13.458,30,30v4.314   c10.436,2.119,20.474,5.328,30,9.491c0-4.434,0-9.052,0-13.805c0-33.137-26.863-60-60-60s-60,26.863-60,60   c0,4.753,0,9.371,0,13.805C177.026,69.97,187.064,66.76,197.5,64.642z"/>
	<path style="fill:#F2484B;" d="M107.5,237.688c-4.142,0-7.5-3.357-7.5-7.5V215.16c0-4.143,3.358-7.5,7.5-7.5s7.5,3.357,7.5,7.5   v15.028C115,234.331,111.642,237.688,107.5,237.688z"/>
	<path style="fill:#F2484B;" d="M110.256,193.539c-0.53,0-1.067-0.057-1.606-0.175c-4.047-0.883-6.612-4.879-5.729-8.926   c1.132-5.188,2.607-10.355,4.383-15.357c1.386-3.903,5.676-5.942,9.577-4.558c3.903,1.386,5.944,5.674,4.558,9.577   c-1.565,4.408-2.865,8.962-3.863,13.535C116.811,191.144,113.705,193.539,110.256,193.539z"/>
	<path style="fill:#F2484B;" d="M127.453,152.932c-1.425,0-2.865-0.405-4.142-1.253c-3.451-2.291-4.391-6.945-2.1-10.396   c2.928-4.411,6.166-8.684,9.621-12.699c2.701-3.14,7.436-3.497,10.577-0.793c3.14,2.701,3.495,7.437,0.793,10.576   c-3.051,3.546-5.91,7.318-8.495,11.213C132.264,151.754,129.881,152.932,127.453,152.932z"/>
	<path style="fill:#F2484B;" d="M158.137,121.272c-2.346,0-4.656-1.098-6.119-3.155c-2.4-3.376-1.609-8.058,1.766-10.458   c4.33-3.078,8.894-5.912,13.565-8.421c3.648-1.96,8.196-0.591,10.156,3.059s0.59,8.196-3.059,10.156   c-4.122,2.214-8.149,4.714-11.971,7.431C161.158,120.821,159.641,121.272,158.137,121.272z"/>
	<path style="fill:#F2484B;" d="M198.164,102.765c-3.355,0-6.41-2.268-7.267-5.669c-1.013-4.017,1.423-8.093,5.439-9.105   c5.138-1.295,10.419-2.277,15.697-2.92c4.114-0.487,7.851,2.429,8.351,6.539c0.5,4.112-2.428,7.851-6.54,8.352   c-4.655,0.566-9.312,1.433-13.842,2.574C199.388,102.691,198.771,102.765,198.164,102.765z"/>
	<path style="fill:#F2484B;" d="M256.945,102.792c-0.609,0-1.229-0.075-1.846-0.231c-4.531-1.146-9.185-2.017-13.831-2.586   c-4.111-0.504-7.036-4.245-6.532-8.356s4.252-7.029,8.356-6.532c5.27,0.646,10.547,1.633,15.687,2.934   c4.016,1.016,6.447,5.095,5.431,9.11C263.351,100.529,260.297,102.792,256.945,102.792z"/>
	<path style="fill:#F2484B;" d="M296.946,121.332c-1.505,0-3.024-0.452-4.344-1.392c-3.819-2.721-7.845-5.224-11.963-7.44   c-3.647-1.964-5.013-6.512-3.05-10.159s6.512-5.012,10.159-3.05c4.668,2.513,9.229,5.35,13.555,8.431   c3.374,2.403,4.161,7.087,1.759,10.46C301.599,120.236,299.29,121.332,296.946,121.332z"/>
	<path style="fill:#F2484B;" d="M327.618,153.039c-2.431,0-4.815-1.18-6.259-3.358c-2.587-3.903-5.446-7.686-8.5-11.241   c-2.699-3.143-2.339-7.878,0.803-10.576c3.142-2.7,7.878-2.338,10.576,0.803c3.458,4.026,6.696,8.309,9.625,12.729   c2.288,3.453,1.344,8.106-2.109,10.395C330.479,152.634,329.041,153.039,327.618,153.039z"/>
	<path style="fill:#F2484B;" d="M344.772,193.668c-3.454,0-6.561-2.399-7.322-5.912c-0.993-4.576-2.288-9.135-3.851-13.549   c-1.382-3.904,0.663-8.19,4.568-9.572c3.905-1.383,8.191,0.662,9.572,4.568c1.772,5.008,3.242,10.181,4.369,15.373   c0.878,4.048-1.692,8.041-5.74,8.92C345.834,193.612,345.299,193.668,344.772,193.668z"/>
	<path style="fill:#F2484B;" d="M347.5,237.828c-4.143,0-7.5-3.357-7.5-7.5v-15.042c0-4.143,3.357-7.5,7.5-7.5s7.5,3.357,7.5,7.5   v15.042C355,234.47,351.643,237.828,347.5,237.828z"/>
	<path style="fill:#082947;" d="M280,290.328v40c0,4.143,3.357,7.5,7.5,7.5s7.5-3.357,7.5-7.5v-40H280z"/>
	<path style="fill:#FFFFFF;" d="M317.5,275.328v25h-180v-25c0-8.25,6.75-15,15-15h150C310.75,260.328,317.5,267.078,317.5,275.328z"/>
</g>















</svg>
