<?xml version="1.0" encoding="iso-8859-1"?>
<!-- Generator: Adobe Illustrator 19.0.0, SVG Export Plug-In . SVG Version: 6.00 Build 0)  -->
<svg xmlns="http://www.w3.org/2000/svg" xmlns:xlink="http://www.w3.org/1999/xlink" version="1.1" id="Capa_1" x="0px" y="0px" viewBox="0 0 455 455" style="enable-background:new 0 0 455 455;" xml:space="preserve" width="512" height="512">
<g>
	<path style="fill:#185F8D;" d="M198.75,393.5v-15c116.07,0,210.5-94.43,210.5-210.5h15c0,60.231-23.457,116.858-66.049,159.451   C315.608,370.043,258.981,393.5,198.75,393.5z"/>
	<path style="fill:#C1E8E6;" d="M198.75,0c92.78,0,168,75.22,168,168s-75.22,168-168,168s-168-75.22-168-168S105.97,0,198.75,0z"/>
	<path style="fill:#98D9D5;" d="M198.75,30c76.212,0,138,61.788,138,138s-61.788,138-138,138s-138-61.788-138-138   S122.538,30,198.75,30z"/>
	<path style="fill:#185F8D;" d="M198.75,148c11.03,0,20,8.97,20,20s-8.97,20-20,20s-20-8.97-20-20S187.72,148,198.75,148z"/>
	<circle style="fill:#6DA8D6;" cx="395.5" cy="168" r="28.75"/>
	<polygon style="fill:#6DA8D6;" points="289.779,357.776 289.75,455 107.75,455 107.75,357.776  "/>
	<polygon style="fill:#185F8D;" points="137.75,387.776 137.75,425 259.76,425 259.77,387.776  "/>
</g>















</svg>
