<?xml version="1.0" encoding="iso-8859-1"?>
<!-- Generator: Adobe Illustrator 19.0.0, SVG Export Plug-In . SVG Version: 6.00 Build 0)  -->
<svg xmlns="http://www.w3.org/2000/svg" xmlns:xlink="http://www.w3.org/1999/xlink" version="1.1" id="Capa_1" x="0px" y="0px" viewBox="0 0 455 455" style="enable-background:new 0 0 455 455;" xml:space="preserve" width="512" height="512">
<g>
	
		<rect x="129.563" y="355.572" transform="matrix(-0.7071 -0.7071 0.7071 -0.7071 21.4932 735.0458)" style="fill:#185F8D;" width="66.832" height="15"/>
	
		<rect x="258.605" y="265.572" transform="matrix(0.7071 -0.7071 0.7071 0.7071 -107.5598 286.4699)" style="fill:#185F8D;" width="66.832" height="15"/>
	<path style="fill:#6DA8D6;" d="M449.896,115.197l-98.641,68.641l-38.641,68.641c37.669,11.928,80.509,2.992,110.385-26.883   C452.874,195.719,461.81,152.88,449.896,115.197z"/>
	<polygon style="fill:#FFCC75;" points="177.5,120.068 177.5,455 227.5,455 237.5,100  "/>
	<polygon style="fill:#F48205;" points="227.5,100 227.5,455 277.5,455 277.5,120.067  "/>
	<polygon style="fill:#274B6D;" points="227.5,0 206.667,50 227.5,60 248.334,50  "/>
	<path style="fill:#F2EBD9;" d="M177.5,120.067c5.614,3.236,12.283,5.12,19.444,5.12c12.871,0,24.161-6.065,30.556-15.188   c6.395,9.122,17.685,15.188,30.555,15.188c7.162,0,13.831-1.884,19.445-5.12V120l-29.167-70h-41.667L177.5,120V120.067z"/>
	<path style="fill:#98D9D5;" d="M449.896,115.197L312.614,252.479c-11.927-37.67-2.992-80.509,26.884-110.384   C369.374,112.219,412.213,103.284,449.896,115.197z"/>
	<path style="fill:#6DA8D6;" d="M5.104,205.197l68.641,38.641l68.641,98.641c-37.669,11.928-80.509,2.992-110.384-26.883   C2.126,285.719-6.81,242.88,5.104,205.197z"/>
	<path style="fill:#98D9D5;" d="M5.104,205.197l137.282,137.282c11.927-37.67,2.992-80.509-26.884-110.385   S42.787,193.284,5.104,205.197z"/>
</g>















</svg>
