<?xml version="1.0" encoding="iso-8859-1"?>
<!-- Generator: Adobe Illustrator 19.0.0, SVG Export Plug-In . SVG Version: 6.00 Build 0)  -->
<svg xmlns="http://www.w3.org/2000/svg" xmlns:xlink="http://www.w3.org/1999/xlink" version="1.1" id="Capa_1" x="0px" y="0px" viewBox="0 0 454.73 454.73" style="enable-background:new 0 0 454.73 454.73;" xml:space="preserve" width="512" height="512">
<g>
	<rect x="49.86" y="333.865" style="fill:#F2EBD9;" width="355" height="55"/>
	<path style="fill:#6DA8D6;" d="M49.86,161.865v97c0,8.25,6.75,15,15,15h325c8.25,0,15-6.75,15-15v-97H49.86z"/>
	<rect x="29.86" y="115.865" style="fill:#F48205;" width="395" height="66"/>
	<circle style="fill:#185F8D;" cx="333.168" cy="237.865" r="7.5"/>
	<circle style="fill:#185F8D;" cx="363.168" cy="217.865" r="7.5"/>
	<path style="fill:#FFCC75;" d="M424.86,65.865h-395C13.37,65.865,0,79.435,0,95.935c0,16.49,13.37,29.93,29.86,29.93h395   c16.5,0,29.87-13.44,29.87-29.93C454.73,79.435,441.36,65.865,424.86,65.865z"/>
</g>















</svg>
