<?xml version="1.0" encoding="iso-8859-1"?>
<!-- Generator: Adobe Illustrator 19.0.0, SVG Export Plug-In . SVG Version: 6.00 Build 0)  -->
<svg xmlns="http://www.w3.org/2000/svg" xmlns:xlink="http://www.w3.org/1999/xlink" version="1.1" id="Capa_1" x="0px" y="0px" viewBox="0 0 455 455" style="enable-background:new 0 0 455 455;" xml:space="preserve" width="512" height="512">
<g>
	<path style="fill:#FF6E1D;" d="M366.13,70H88.87c-22,0-40,18-40,40v104.17h357.26V110C406.13,88,388.13,70,366.13,70z"/>
	<polygon style="fill:#FFFFFF;" points="366.13,110 366.13,204.17 300.36,204.17 310.36,110.53 310.36,110  "/>
	<polygon style="fill:#FFFFFF;" points="255.12,110.53 265.12,204.17 189.77,204.17 199.77,110 199.88,110 255.12,110  "/>
	<polygon style="fill:#FFFFFF;" points="144.32,110 154.32,204.17 88.87,204.17 88.87,110  "/>
	<rect x="144.32" style="fill:#F2EBD9;" width="55.45" height="204.17"/>
	<polygon style="fill:#F2EBD9;" points="310.36,110.53 310.36,204.17 255.12,204.17 255.12,110.53 255.12,110 310.36,110  "/>
	<path style="fill:#FFCC75;" d="M26.37,126.672c-4.142,0-7.5,3.358-7.5,7.5v59.998l15,10v-69.998   C33.87,130.03,30.512,126.672,26.37,126.672z"/>
	<path style="fill:#FFCC75;" d="M428.63,126.672c-4.142,0-7.5,3.358-7.5,7.5v69.998l15-10v-59.998   C436.13,130.03,432.772,126.672,428.63,126.672z"/>
	<rect x="18.87" y="194.17" style="fill:#FFCC75;" width="417.26" height="260.83"/>
	<path style="fill:#FFFFFF;" d="M144.32,264.17l10,65.415l-10,65.415h-15.45c-22,0-40-18-40-40v-50.83c0-22,18-40,40-40H144.32z"/>
	<polygon style="fill:#FFFFFF;" points="255.12,264.17 265.12,329.585 255.12,395 199.77,395 189.77,329.585 199.77,264.17  "/>
	<path style="fill:#FFFFFF;" d="M366.13,304.17V355c0,22-18,40-40,40h-15.77l-10-65.415l10-65.415h15.77   C348.13,264.17,366.13,282.17,366.13,304.17z"/>
	<rect x="144.32" y="264.17" style="fill:#F2EBD9;" width="55.45" height="130.83"/>
	<rect x="255.12" y="264.17" style="fill:#F2EBD9;" width="55.24" height="130.83"/>
</g>















</svg>
