<?xml version="1.0" encoding="iso-8859-1"?>
<!-- Generator: Adobe Illustrator 19.0.0, SVG Export Plug-In . SVG Version: 6.00 Build 0)  -->
<svg xmlns="http://www.w3.org/2000/svg" xmlns:xlink="http://www.w3.org/1999/xlink" version="1.1" id="Capa_1" x="0px" y="0px" viewBox="0 0 460 460" style="enable-background:new 0 0 460 460;" xml:space="preserve" width="512" height="512">
<g>
	<polygon style="fill:#F2EBD9;" points="85.475,30 85.475,161.42 230,181.42 374.525,161.42 374.525,30  "/>
	<path style="fill:#FFCC75;" d="M374.524,0C356.86,0,99.387,0,85.476,0c-30.768,0-55.71,24.942-55.71,55.71   s24.942,55.71,55.71,55.71s55.711-24.942,55.711-55.71h177.627c0,30.768,24.942,55.71,55.711,55.71s55.711-24.942,55.711-55.71   S405.292,0,374.524,0z"/>
	<polygon style="fill:#F2EBD9;" points="230,221.42 85.475,241.42 85.475,460 127.735,460 147.735,441.42 167.735,460 209.995,460    229.995,441.42 249.995,460 292.265,460 312.265,441.42 332.265,460 374.525,460 374.525,241.42  "/>
	<path style="fill:#FFCC75;" d="M167.735,301.42V460h-40V301.42c0-11.04,8.96-20,20-20   C158.785,281.42,167.735,290.38,167.735,301.42z"/>
	<path style="fill:#FFCC75;" d="M249.995,301.42V460h-40V301.42c0-11.04,8.96-20,20-20   C241.045,281.42,249.995,290.38,249.995,301.42z"/>
	<path style="fill:#FFCC75;" d="M332.265,301.42V460h-40V301.42c0-11.04,8.95-20,20-20   C323.305,281.42,332.265,290.38,332.265,301.42z"/>
	<rect x="85.475" y="161.42" style="fill:#FFCC75;" width="289.05" height="40"/>
	<circle style="fill:#F2EBD9;" cx="85.476" cy="55.71" r="25.71"/>
	<circle style="fill:#F2EBD9;" cx="374.524" cy="55.71" r="25.71"/>
	<path style="fill:#FFCC75;" d="M374.525,201.42c11.04,0,20,8.93,20,20c0,11.04-8.96,20-20,20H85.475c-11.04,0-20-8.96-20-20   c0-11.07,8.96-20,20-20H374.525z"/>
</g>















</svg>
