<?xml version="1.0" encoding="iso-8859-1"?>
<!-- Generator: Adobe Illustrator 19.0.0, SVG Export Plug-In . SVG Version: 6.00 Build 0)  -->
<svg xmlns="http://www.w3.org/2000/svg" xmlns:xlink="http://www.w3.org/1999/xlink" version="1.1" id="Capa_1" x="0px" y="0px" viewBox="0 0 467.804 467.804" style="enable-background:new 0 0 467.804 467.804;" xml:space="preserve" width="512" height="512">
<g>
	<path style="fill:#082947;" d="M292.102,26.334c-10.6-10.601-24.694-16.438-39.686-16.438c-14.991,0-29.085,5.838-39.686,16.438   l10.606,10.606c7.768-7.767,18.095-12.045,29.08-12.045c10.985,0,21.312,4.278,29.08,12.045   c8.986,8.986,13.268,21.386,11.75,34.021c-0.495,4.113,2.438,7.847,6.551,8.342c0.304,0.037,0.605,0.054,0.904,0.054   c3.742,0,6.979-2.797,7.437-6.606C310.21,55.516,304.365,38.597,292.102,26.334z"/>
	<polygon style="fill:#BD1515;" points="365.688,415.18 350.688,415.18 350.688,221.151 347.896,214.533 198.471,65.108    209.078,54.502 360.575,206 365.688,218.116  "/>
	<path style="fill:#F2484B;" d="M244.363,57.967l-44.2,44.21c15.33,32.31,14.17,70.49-3.49,101.91h-20L45.593,52.997   c31.42-17.66,69.6-18.82,101.9-3.49l44.21-44.2L244.363,57.967z"/>
	<path style="fill:#98D9D5;" d="M45.593,52.997l151.08,151.09c-4.85,8.64-10.96,16.77-18.31,24.12l-156.9-156.9   C28.813,63.957,36.953,57.847,45.593,52.997z"/>
	<polygon style="fill:#BD1515;" points="395.688,415.18 380.688,415.18 380.688,220.72 374.037,198.249 186.395,10.606 197.002,0    387.339,190.337 395.688,218.547  "/>
	<rect x="239.313" y="375.177" style="fill:#98D9D5;" width="30" height="40"/>
	<path style="fill:#F2484B;" d="M427.573,433.677c-5.16-15.67-22.88-28.5-39.38-28.5h-178.88c-16.5,0-34.22,12.83-39.38,28.5   l-8.77,26.63h275.18L427.573,433.677z"/>
	<path style="fill:#FFCC75;" d="M373.193,200.507c4.13,0,7.5,3.36,7.5,7.5c0,4.13-3.37,7.5-7.5,7.5c-4.14,0-7.5-3.37-7.5-7.5   C365.693,203.867,369.053,200.507,373.193,200.507z"/>
	<circle style="fill:#98D9D5;" cx="373.188" cy="208.006" r="35"/>
	<path style="fill:#082947;" d="M373.188,215.506c-4.135,0-7.5-3.365-7.5-7.5s3.365-7.5,7.5-7.5s7.5,3.365,7.5,7.5   S377.323,215.506,373.188,215.506z"/>
	<path style="fill:#BD1515;" d="M158.661,467.804c-4.142,0-7.5-3.358-7.5-7.5s3.358-7.5,7.5-7.5l280.18,0c4.142,0,7.5,3.358,7.5,7.5   s-3.358,7.5-7.5,7.5L158.661,467.804z"/>
</g>















</svg>
