<?xml version="1.0" encoding="iso-8859-1"?>
<!-- Generator: Adobe Illustrator 19.0.0, SVG Export Plug-In . SVG Version: 6.00 Build 0)  -->
<svg xmlns="http://www.w3.org/2000/svg" xmlns:xlink="http://www.w3.org/1999/xlink" version="1.1" id="Capa_1" x="0px" y="0px" viewBox="0 0 450 450" style="enable-background:new 0 0 450 450;" xml:space="preserve" width="512" height="512">
<g>
	<path style="fill:#FFCC75;" d="M450,44.47v361.06H0V44.47H450z"/>
	<path style="fill:#FF6E1D;" d="M225,265.53c16.57,0,30,13.43,30,30c0,16.56-13.43,30-30,30s-30-13.44-30-30   C195,278.96,208.43,265.53,225,265.53z"/>
	<path style="fill:#F2EBD9;" d="M420,111.72v226.56c-20.57,0-37.24,16.68-37.24,37.25H67.24c0-20.57-16.67-37.25-37.24-37.25V111.72   c20.57,0,37.24-16.68,37.24-37.25h315.52C382.76,95.04,399.43,111.72,420,111.72z M255,295.53c0-16.57-13.43-30-30-30   s-30,13.43-30,30c0,16.56,13.43,30,30,30S255,312.09,255,295.53z"/>
	<path style="fill:#6DA8D6;" d="M300.92,150.922l-23.332-30c-1.421-1.827-3.606-2.896-5.92-2.896s-4.5,1.069-5.92,2.896   l-17.412,22.388l-17.411-22.388c-1.421-1.827-3.611-2.896-5.925-2.896s-4.504,1.069-5.925,2.896l-17.411,22.388l-17.412-22.388   c-1.421-1.827-3.606-2.896-5.92-2.896s-4.5,1.069-5.92,2.896l-23.332,30c-2.543,3.27-1.954,7.982,1.316,10.525   c3.271,2.542,7.982,1.953,10.525-1.316l17.411-22.388l17.412,22.388c1.421,1.827,3.606,2.896,5.92,2.896s4.5-1.069,5.92-2.896   L225,137.743l17.416,22.388c1.421,1.827,3.606,2.896,5.92,2.896s4.5-1.069,5.92-2.896l17.412-22.388l17.411,22.388   c2.543,3.269,7.253,3.857,10.525,1.316C302.874,158.904,303.463,154.192,300.92,150.922z"/>
	<path style="fill:#6DA8D6;" d="M340.097,233.026H109.903c-4.142,0-7.5-3.358-7.5-7.5s3.358-7.5,7.5-7.5h230.194   c4.142,0,7.5,3.358,7.5,7.5S344.239,233.026,340.097,233.026z"/>
	<path style="fill:#6DA8D6;" d="M370.097,203.026H79.903c-4.142,0-7.5-3.358-7.5-7.5s3.358-7.5,7.5-7.5h290.194   c4.142,0,7.5,3.358,7.5,7.5S374.239,203.026,370.097,203.026z"/>
	<path style="fill:#6DA8D6;" d="M165,303.026h-55.097c-4.142,0-7.5-3.358-7.5-7.5s3.358-7.5,7.5-7.5H165c4.142,0,7.5,3.358,7.5,7.5   S169.142,303.026,165,303.026z"/>
	<path style="fill:#6DA8D6;" d="M285,303.03c-4.142,0-7.5-3.357-7.5-7.5s3.357-7.5,7.5-7.5l55.097-0.003c4.142,0,7.5,3.357,7.5,7.5   s-3.357,7.5-7.5,7.5L285,303.03z"/>
</g>















</svg>
