<?xml version="1.0" encoding="iso-8859-1"?>
<!-- Generator: Adobe Illustrator 19.0.0, SVG Export Plug-In . SVG Version: 6.00 Build 0)  -->
<svg xmlns="http://www.w3.org/2000/svg" xmlns:xlink="http://www.w3.org/1999/xlink" version="1.1" id="Capa_1" x="0px" y="0px" viewBox="0 0 454.993 454.993" style="enable-background:new 0 0 454.993 454.993;" xml:space="preserve" width="512" height="512">
<g>
	<rect x="239.935" y="321.327" style="fill:#082947;" width="15" height="73.666"/>
	<path style="fill:#F2484B;" d="M305.894,374.993h-116.92c-27.61,0-50,22.39-50,50l108.46,10l108.46-10   C355.894,397.383,333.514,374.993,305.894,374.993z"/>
	<path style="fill:#185F8D;" d="M384.895,271.283L120.581,6.969c-2.929-2.929-7.678-2.929-10.606,0   c-2.929,2.929-2.929,7.678,0,10.606l1.884,1.884c-66.654,72.24-64.933,185.239,5.186,255.358   c35.949,35.948,83.169,53.922,130.389,53.922c44.886,0,89.765-16.254,124.969-48.736l1.885,1.885c2.929,2.929,7.678,2.929,10.606,0   C387.824,278.961,387.824,274.212,384.895,271.283z M127.652,264.212c-64.271-64.271-65.991-167.757-5.18-234.138L361.79,269.391   C295.409,330.202,191.924,328.482,127.652,264.212z"/>
	<path style="fill:#BD1515;" d="M366.524,424.993h-238.18c-8.28,0-15,6.72-15,15s6.72,15,15,15h238.18c8.29,0,15-6.72,15-15   S374.814,424.993,366.524,424.993z"/>
	<path style="fill:#C1E8E6;" d="M262.025,0.735c31.962,3.226,63.054,17.076,87.541,41.563   c24.487,24.487,38.337,55.579,41.563,87.541l-39.571,39.571L222.454,40.306L262.025,0.735z"/>
	<path style="fill:#98D9D5;" d="M298.501,93.363c24.487,24.487,42.647,51.269,53.057,76.047l-53.713,53.713L168.741,94.019   l53.713-53.713C247.232,50.716,274.014,68.876,298.501,93.363z"/>
	<path style="fill:#98D9D5;" d="M103.74,159.019l39.571-39.571l129.104,129.104l-39.571,39.571   c-31.962-3.226-63.054-17.076-87.541-41.563S106.967,190.981,103.74,159.019z"/>
	<path style="fill:#6DA8D6;" d="M143.312,119.448l39.571-39.571l129.104,129.104l-39.571,39.571   c-24.778-10.41-51.56-28.571-76.047-53.057S153.722,144.226,143.312,119.448z"/>
	<path style="fill:#98D9D5;" d="M262.025,0.735c1.957,19.384,0,39.087-5.862,57.832l-110.86-16.269   C177.222,10.379,220.363-3.471,262.025,0.735z"/>
	<path style="fill:#6DA8D6;" d="M145.303,42.298c21.379-21.379,65.965-13.407,110.86,16.269   c-6.737,21.544-18.633,41.822-35.701,58.89L145.303,42.298z"/>
	<path style="fill:#6DA8D6;" d="M145.303,42.298l16.269,110.86c-18.745,5.862-38.448,7.819-57.832,5.862   C99.535,117.357,113.385,74.216,145.303,42.298z"/>
	<path style="fill:#185F8D;" d="M145.303,42.298l75.159,75.159c-17.068,17.068-37.346,28.964-58.89,35.701   C131.896,108.263,123.924,63.677,145.303,42.298z"/>
	<path style="fill:#6DA8D6;" d="M238.707,230.291l110.856,16.273c-31.918,31.916-75.057,45.764-116.718,41.559   C230.888,268.739,232.845,249.036,238.707,230.291z"/>
	<path style="fill:#185F8D;" d="M238.707,230.291c6.737-21.544,18.633-41.822,35.701-58.89l75.159,75.159   C328.182,267.939,283.598,259.966,238.707,230.291z"/>
	<path style="fill:#98D9D5;" d="M333.297,135.701c18.745-5.862,38.448-7.819,57.832-5.862c4.205,41.661-9.643,84.799-41.559,116.718   L333.297,135.701z"/>
	<path style="fill:#6DA8D6;" d="M349.57,246.557c-0.004,0.004-75.163-75.155-75.163-75.155   c17.068-17.068,37.346-28.964,58.889-35.701C362.972,180.592,370.944,225.176,349.57,246.557z"/>
</g>















</svg>
