<?xml version="1.0" encoding="iso-8859-1"?>
<!-- Generator: Adobe Illustrator 19.0.0, SVG Export Plug-In . SVG Version: 6.00 Build 0)  -->
<svg xmlns="http://www.w3.org/2000/svg" xmlns:xlink="http://www.w3.org/1999/xlink" version="1.1" id="Capa_1" x="0px" y="0px" viewBox="0 0 455 455" style="enable-background:new 0 0 455 455;" xml:space="preserve" width="512" height="512">
<g>
	<path style="fill:#F2484B;" d="M30,90c-16.5,0-30,13.5-30,30v215c0,16.5,13.5,30,30,30h195l20-137.5L225,90H30z"/>
	<path style="fill:#185F8D;" d="M425,90h-70v275h70c16.5,0,30-13.5,30-30V120C455,103.5,441.5,90,425,90z"/>
	<path style="fill:#6DA8D6;" d="M385,120v215c0,16.5-13.5,30-30,30H225V90h130C371.5,90,385,103.5,385,120z"/>
	<circle style="fill:#BD1515;" cx="75.952" cy="319.525" r="7.5"/>
	<circle style="fill:#BD1515;" cx="45.952" cy="289.524" r="7.5"/>
	<circle style="fill:#BD1515;" cx="175.5" cy="135.475" r="7.5"/>
</g>















</svg>
