<?xml version="1.0" encoding="iso-8859-1"?>
<!-- Generator: Adobe Illustrator 19.0.0, SVG Export Plug-In . SVG Version: 6.00 Build 0)  -->
<svg xmlns="http://www.w3.org/2000/svg" xmlns:xlink="http://www.w3.org/1999/xlink" version="1.1" id="Capa_1" x="0px" y="0px" viewBox="0 0 455 455" style="enable-background:new 0 0 455 455;" xml:space="preserve" width="512" height="512">
<g>
	<rect x="15" y="70" style="fill:#F48205;" width="425" height="40"/>
	<path style="fill:#FFCC75;" d="M15,110v290h425V110H15z"/>
	<circle style="fill:#F48205;" cx="60.5" cy="324.5" r="7.5"/>
	<circle style="fill:#F48205;" cx="90.5" cy="354.5" r="7.5"/>
	<path style="fill:#F2484B;" d="M447.5,260c-1.919,0-3.839-0.732-5.304-2.196l-190-190c-2.929-2.93-2.929-7.678,0-10.607   c2.93-2.928,7.678-2.928,10.607,0l190,190c2.929,2.93,2.929,7.678,0,10.607C451.339,259.268,449.419,260,447.5,260z"/>
	<path style="fill:#F2484B;" d="M7.5,260c-1.919,0-3.839-0.732-5.304-2.196c-2.929-2.93-2.929-7.678,0-10.607l190-190   c2.93-2.928,7.678-2.928,10.607,0c2.929,2.93,2.929,7.678,0,10.607l-190,190C11.339,259.268,9.419,260,7.5,260z"/>
</g>















</svg>
