<?xml version="1.0" encoding="iso-8859-1"?>
<!-- Generator: Adobe Illustrator 19.0.0, SVG Export Plug-In . SVG Version: 6.00 Build 0)  -->
<svg xmlns="http://www.w3.org/2000/svg" xmlns:xlink="http://www.w3.org/1999/xlink" version="1.1" id="Capa_1" x="0px" y="0px" viewBox="0 0 462.5 462.5" style="enable-background:new 0 0 462.5 462.5;" xml:space="preserve" width="512" height="512">
<g>
	<path style="fill:#274B6D;" d="M329.25,7.5v98.174l-7.675,18.53c-1.586,3.827,0.231,8.214,4.059,9.799   c3.827,1.589,8.214-0.231,9.799-4.059l1.317-3.18l1.317,3.18c1.196,2.889,3.988,4.632,6.932,4.632c0.956,0,1.929-0.185,2.867-0.573   c3.827-1.585,5.645-5.972,4.059-9.799l-7.675-18.53V7.5"/>
	<path style="fill:#FFCC75;" d="M291.229,85.789l-59.979-60l-59.979,60c-2.442,6.752-3.771,13.777-3.771,21.377   c0,35.211,28.538,63.75,63.75,63.75S295,142.377,295,107.166C295,99.566,293.671,92.541,291.229,85.789z"/>
	<path style="fill:#6DA8D6;" d="M171.271,7.5v78.289c7.664-4.26,16.478-6.602,25.852-6.602c12.965,0,24.861,4.648,34.127,12.355   c9.266-7.707,21.161-12.355,34.127-12.355c9.374,0,18.188,2.342,25.852,6.602V7.5H171.271z"/>
	<path style="fill:#185F8D;" d="M351.75,15h-241c-4.142,0-7.5-3.357-7.5-7.5s3.358-7.5,7.5-7.5h241c4.143,0,7.5,3.357,7.5,7.5   S355.893,15,351.75,15z"/>
	<path style="fill:#C1E8E6;" d="M231.25,200.915c24.394,0,47.186,6.853,66.559,18.734c0,0.007-66.559,88.115-66.559,88.115   l-66.559-88.108C184.064,207.768,206.856,200.915,231.25,200.915z"/>
	<polygon style="fill:#082947;" points="220.475,219.951 213.292,318 249.208,318 242.025,219.951 231.25,212.768  "/>
	<path style="fill:#274B6D;" d="M242.025,201.383c-3.554-0.297-7.144-0.468-10.775-0.468s-7.221,0.17-10.775,0.468v18.568h21.549   V201.383z"/>
	<path style="fill:#185F8D;" d="M297.811,219.654l-66.561,66.561l-66.561-66.561c-36.552,22.418-60.939,62.74-60.939,108.762h255   C358.75,282.393,334.364,242.071,297.811,219.654z"/>
	<polygon style="fill:#FFCC75;" points="33.75,328.42 43.75,462.5 83.75,462.5 231.25,408.42 378.75,462.5 418.75,462.5    428.75,328.42  "/>
	<path style="fill:#FF6E1D;" d="M382.05,418.21l-3.3,44.29h-295l-3.3-44.29c25.52-2.26,45.54-23.68,45.54-49.79h210.52   C336.51,394.53,356.53,415.95,382.05,418.21z"/>
	<path style="fill:#FF6E1D;" d="M451.25,335.915h-440c-4.142,0-7.5-3.357-7.5-7.5s3.358-7.5,7.5-7.5h440c4.143,0,7.5,3.357,7.5,7.5   S455.393,335.915,451.25,335.915z"/>
</g>















</svg>
