<?xml version="1.0" encoding="iso-8859-1"?>
<!-- Generator: Adobe Illustrator 19.0.0, SVG Export Plug-In . SVG Version: 6.00 Build 0)  -->
<svg xmlns="http://www.w3.org/2000/svg" xmlns:xlink="http://www.w3.org/1999/xlink" version="1.1" id="Capa_1" x="0px" y="0px" viewBox="0 0 455 455" style="enable-background:new 0 0 455 455;" xml:space="preserve" width="512" height="512">
<g>
	<path style="fill:#FFCC75;" d="M295.5,90c-6.072,0-11,4.928-11,11v100h22V101C306.5,94.928,301.572,90,295.5,90z"/>
	<path style="fill:#FFCC75;" d="M338.5,81c0-6.072-4.928-11-11-11s-11,4.928-11,11v120h22V81z"/>
	<path style="fill:#FFCC75;" d="M370.5,101c0-6.072-4.928-11-11-11s-11,4.928-11,11v100h22V101z"/>
	<path style="fill:#FFCC75;" d="M391.5,110c-6.072,0-11,4.928-11,11v80l22-10v-70C402.5,114.928,397.572,110,391.5,110z"/>
	<path style="fill:#FFCC75;" d="M402.5,191h-139v39.29l18.997,60.003c0.003,0.002,0.003,79.967,0.003,79.967h100v-89   c12.406-13.38,20-31.284,20-50.97V191z"/>
	<path style="fill:#F48205;" d="M274.5,230.287V161c0-6.075-4.925-11-11-11s-11,4.925-11,11v69.29c0,41.421,33.579,75,75,75v-22.003   C327.5,253.992,303.795,230.287,274.5,230.287z"/>
	<rect x="262.5" y="360.26" style="fill:#98D9D5;" width="140" height="60"/>
	<rect x="252.5" y="400.26" style="fill:#F2484B;" width="160" height="54.74"/>
	<path style="fill:#F2EBD9;" d="M85.5,20c-6.072,0-11,4.928-11,11v100h22V31C96.5,24.928,91.572,20,85.5,20z"/>
	<path style="fill:#F2EBD9;" d="M128.5,11c0-6.072-4.928-11-11-11s-11,4.928-11,11v120h22V11z"/>
	<path style="fill:#F2EBD9;" d="M160.5,31c0-6.072-4.928-11-11-11s-11,4.928-11,11v100h22V31z"/>
	<path style="fill:#F2EBD9;" d="M181.5,40c-6.072,0-11,4.928-11,11v80l22-10V51C192.5,44.928,187.572,40,181.5,40z"/>
	<path style="fill:#F2EBD9;" d="M192.5,121h-139v39.29l18.997,60.003C72.5,220.295,72.5,300.26,72.5,300.26h100v-89   c12.406-13.38,20-31.284,20-50.97V121z"/>
	<path style="fill:#FFCC75;" d="M64.5,160.287V91c0-6.075-4.925-11-11-11s-11,4.925-11,11v69.29c0,41.421,33.579,75,75,75v-22.003   C117.5,183.992,93.795,160.287,64.5,160.287z"/>
	<rect x="52.5" y="290.26" style="fill:#98D9D5;" width="140" height="60"/>
	<rect x="42.5" y="330.26" style="fill:#F2484B;" width="160" height="124.74"/>
</g>















</svg>
