<?xml version="1.0" encoding="iso-8859-1"?>
<!-- Generator: Adobe Illustrator 19.0.0, SVG Export Plug-In . SVG Version: 6.00 Build 0)  -->
<svg xmlns="http://www.w3.org/2000/svg" xmlns:xlink="http://www.w3.org/1999/xlink" version="1.1" id="Capa_1" x="0px" y="0px" viewBox="0 0 455 455" style="enable-background:new 0 0 455 455;" xml:space="preserve" width="512" height="512">
<g>
	<path style="fill:#FFFFFF;" d="M437.5,100V0h-160v100h30v77.5h-160V100h30V0h-160v100h30v255h-30v100h160V355h-30v-77.5h160V355   h-30v100h160V355h-30V100H437.5z M407.5,385v40h-100v-40h30V247.5h-220V385h30v40h-100v-40h30V70h-30V30h100v40h-30v137.5h220V70   h-30V30h100v40h-30v315H407.5z"/>
	<polygon style="fill:#F2EBD9;" points="437.5,100 437.5,0 277.5,0 277.5,100 307.5,100 307.5,177.5 147.5,177.5 147.5,100    177.5,100 177.5,0 17.5,0 17.5,100 47.5,100 47.5,355 17.5,355 17.5,455 177.5,455 177.5,355 147.5,355 147.5,277.5 307.5,277.5    307.5,355 277.5,355 277.5,455 437.5,455 437.5,355 407.5,355 407.5,100  "/>
	<polygon style="fill:#FFCC75;" points="407.5,70 407.5,30 307.5,30 307.5,70 337.5,70 337.5,207.5 117.5,207.5 117.5,70 147.5,70    147.5,30 47.5,30 47.5,70 77.5,70 77.5,385 47.5,385 47.5,425 147.5,425 147.5,385 117.5,385 117.5,247.5 337.5,247.5 337.5,385    307.5,385 307.5,425 407.5,425 407.5,385 377.5,385 377.5,70  "/>
</g>















</svg>
