<?xml version="1.0" encoding="iso-8859-1"?>
<!-- Generator: Adobe Illustrator 19.0.0, SVG Export Plug-In . SVG Version: 6.00 Build 0)  -->
<svg xmlns="http://www.w3.org/2000/svg" xmlns:xlink="http://www.w3.org/1999/xlink" version="1.1" id="Capa_1" x="0px" y="0px" viewBox="0 0 462.5 462.5" style="enable-background:new 0 0 462.5 462.5;" xml:space="preserve" width="512" height="512">
<g>
	<path style="fill:#274B6D;" d="M3.75,425v30c0,4.142,3.358,7.5,7.5,7.5s7.5-3.358,7.5-7.5v-40L3.75,425z"/>
	<path style="fill:#082947;" d="M147.912,405v50c0,4.142,3.358,7.5,7.5,7.5s7.5-3.358,7.5-7.5v-50H147.912z"/>
	<path style="fill:#082947;" d="M299.579,405v50c0,4.142,3.357,7.5,7.5,7.5s7.5-3.358,7.5-7.5v-50H299.579z"/>
	<path style="fill:#274B6D;" d="M443.75,415v40c0,4.142,3.357,7.5,7.5,7.5s7.5-3.358,7.5-7.5v-30L443.75,415z"/>
	<polygon style="fill:#6DA8D6;" points="3.75,0 3.75,425 155.41,425 175.41,212.5 155.41,0  "/>
	<path style="fill:#6DA8D6;" d="M458.75,0v425H307.08l-20-212.5l20-212.5H458.75z"/>
	<path style="fill:#185F8D;" d="M307.08,0v425H155.41V0H307.08z"/>
	<path style="fill:#6DA8D6;" d="M210.41,197.5c8.29,0,15,6.72,15,15s-6.71,15-15,15c-8.28,0-15-6.72-15-15   S202.13,197.5,210.41,197.5z"/>
	<path style="fill:#185F8D;" d="M362.08,197.5c8.28,0,15,6.72,15,15s-6.72,15-15,15c-8.29,0-15-6.72-15-15   S353.79,197.5,362.08,197.5z"/>
	<path style="fill:#185F8D;" d="M115.412,47.5H43.745c-4.142,0-7.5-3.358-7.5-7.5s3.358-7.5,7.5-7.5h71.667   c4.142,0,7.5,3.358,7.5,7.5S119.554,47.5,115.412,47.5z"/>
	<path style="fill:#185F8D;" d="M115.412,77.5H43.745c-4.142,0-7.5-3.358-7.5-7.5s3.358-7.5,7.5-7.5h71.667   c4.142,0,7.5,3.358,7.5,7.5S119.554,77.5,115.412,77.5z"/>
	<path style="fill:#185F8D;" d="M115.412,107.5H43.745c-4.142,0-7.5-3.358-7.5-7.5s3.358-7.5,7.5-7.5h71.667   c4.142,0,7.5,3.358,7.5,7.5S119.554,107.5,115.412,107.5z"/>
	<path style="fill:#185F8D;" d="M115.412,332.5H43.745c-4.142,0-7.5-3.358-7.5-7.5s3.358-7.5,7.5-7.5h71.667   c4.142,0,7.5,3.358,7.5,7.5S119.554,332.5,115.412,332.5z"/>
	<path style="fill:#185F8D;" d="M115.412,362.5H43.745c-4.142,0-7.5-3.358-7.5-7.5s3.358-7.5,7.5-7.5h71.667   c4.142,0,7.5,3.358,7.5,7.5S119.554,362.5,115.412,362.5z"/>
	<path style="fill:#185F8D;" d="M115.412,392.5H43.745c-4.142,0-7.5-3.358-7.5-7.5s3.358-7.5,7.5-7.5h71.667   c4.142,0,7.5,3.358,7.5,7.5S119.554,392.5,115.412,392.5z"/>
	<path style="fill:#082947;" d="M267.079,47.5h-71.667c-4.142,0-7.5-3.358-7.5-7.5s3.358-7.5,7.5-7.5h71.667   c4.143,0,7.5,3.358,7.5,7.5S271.221,47.5,267.079,47.5z"/>
	<path style="fill:#082947;" d="M267.079,77.5h-71.667c-4.142,0-7.5-3.358-7.5-7.5s3.358-7.5,7.5-7.5h71.667   c4.143,0,7.5,3.358,7.5,7.5S271.221,77.5,267.079,77.5z"/>
	<path style="fill:#082947;" d="M267.079,107.5h-71.667c-4.142,0-7.5-3.358-7.5-7.5s3.358-7.5,7.5-7.5h71.667   c4.143,0,7.5,3.358,7.5,7.5S271.221,107.5,267.079,107.5z"/>
	<path style="fill:#082947;" d="M267.079,332.5h-71.667c-4.142,0-7.5-3.358-7.5-7.5s3.358-7.5,7.5-7.5h71.667   c4.143,0,7.5,3.358,7.5,7.5S271.221,332.5,267.079,332.5z"/>
	<path style="fill:#082947;" d="M267.079,362.5h-71.667c-4.142,0-7.5-3.358-7.5-7.5s3.358-7.5,7.5-7.5h71.667   c4.143,0,7.5,3.358,7.5,7.5S271.221,362.5,267.079,362.5z"/>
	<path style="fill:#082947;" d="M267.079,392.5h-71.667c-4.142,0-7.5-3.358-7.5-7.5s3.358-7.5,7.5-7.5h71.667   c4.143,0,7.5,3.358,7.5,7.5S271.221,392.5,267.079,392.5z"/>
	<path style="fill:#185F8D;" d="M418.745,47.5h-71.666c-4.143,0-7.5-3.358-7.5-7.5s3.357-7.5,7.5-7.5h71.666   c4.143,0,7.5,3.358,7.5,7.5S422.887,47.5,418.745,47.5z"/>
	<path style="fill:#185F8D;" d="M418.745,77.5h-71.666c-4.143,0-7.5-3.358-7.5-7.5s3.357-7.5,7.5-7.5h71.666   c4.143,0,7.5,3.358,7.5,7.5S422.887,77.5,418.745,77.5z"/>
	<path style="fill:#185F8D;" d="M418.745,107.5h-71.666c-4.143,0-7.5-3.358-7.5-7.5s3.357-7.5,7.5-7.5h71.666   c4.143,0,7.5,3.358,7.5,7.5S422.887,107.5,418.745,107.5z"/>
	<path style="fill:#185F8D;" d="M418.745,332.5h-71.666c-4.143,0-7.5-3.358-7.5-7.5s3.357-7.5,7.5-7.5h71.666   c4.143,0,7.5,3.358,7.5,7.5S422.887,332.5,418.745,332.5z"/>
	<path style="fill:#185F8D;" d="M418.745,362.5h-71.666c-4.143,0-7.5-3.358-7.5-7.5s3.357-7.5,7.5-7.5h71.666   c4.143,0,7.5,3.358,7.5,7.5S422.887,362.5,418.745,362.5z"/>
	<path style="fill:#185F8D;" d="M418.745,392.5h-71.666c-4.143,0-7.5-3.358-7.5-7.5s3.357-7.5,7.5-7.5h71.666   c4.143,0,7.5,3.358,7.5,7.5S422.887,392.5,418.745,392.5z"/>
	<path style="fill:#185F8D;" d="M58.75,197.5c8.28,0,15,6.72,15,15s-6.72,15-15,15c-8.29,0-15-6.72-15-15S50.46,197.5,58.75,197.5z"/>
</g>















</svg>
