<?xml version="1.0" encoding="iso-8859-1"?>
<!-- Generator: Adobe Illustrator 19.0.0, SVG Export Plug-In . SVG Version: 6.00 Build 0)  -->
<svg xmlns="http://www.w3.org/2000/svg" xmlns:xlink="http://www.w3.org/1999/xlink" version="1.1" id="Capa_1" x="0px" y="0px" viewBox="0 0 455.001 455.001" style="enable-background:new 0 0 455.001 455.001;" xml:space="preserve" width="512" height="512">
<g>
	<polygon style="fill:#FFCC75;" points="345.294,203.831 97.163,438.979 23.086,364.902 258.235,116.772 308.835,153.23  "/>
	<path style="fill:#F48205;" d="M373.592,232.129L147.205,446.665c-11.964,11.342-31.282,11.073-42.936-0.58l-7.106-7.106   l248.131-249.291L373.592,232.129z"/>
	<path style="fill:#F48205;" d="M272.377,116.772L23.086,364.902l-7.106-7.106c-11.653-11.653-11.922-30.971-0.58-42.936   L229.943,88.48L272.377,116.772z"/>
	<polygon style="fill:#FFCC75;" points="447.937,45.057 412.61,80.384 381.681,49.455 431.137,0  "/>
	<path style="fill:#274B6D;" d="M433.817,73.306L388.76,28.249c-31.693,31.693-76.58,42.144-116.977,31.36L250.57,80.822   l130.673,130.673l21.213-21.213C391.673,149.886,402.124,104.998,433.817,73.306z"/>
	<polygon style="fill:#082947;" points="250.584,66.694 229.943,88.48 373.592,232.129 395.378,211.489  "/>
</g>















</svg>
