<?xml version="1.0" encoding="iso-8859-1"?>
<!-- Generator: Adobe Illustrator 19.0.0, SVG Export Plug-In . SVG Version: 6.00 Build 0)  -->
<svg xmlns="http://www.w3.org/2000/svg" xmlns:xlink="http://www.w3.org/1999/xlink" version="1.1" id="Capa_1" x="0px" y="0px" viewBox="0 0 455 455" style="enable-background:new 0 0 455 455;" xml:space="preserve" width="512" height="512">
<g>
	<path style="fill:#F2484B;" d="M227.5,0C101.86,0,0,101.86,0,227.5S101.86,455,227.5,455C353.15,455,455,353.14,455,227.5   S353.15,0,227.5,0z"/>
	<path style="fill:#FFFFFF;" d="M227.5,30C336.4,30,425,118.6,425,227.5S336.4,425,227.5,425S30,336.4,30,227.5S118.6,30,227.5,30z"/>
	<path style="fill:#FFCC75;" d="M395.002,220h-160V60c0-4.142-3.357-7.5-7.5-7.5c-4.142,0-7.5,3.358-7.5,7.5v160h-160   c-4.142,0-7.5,3.358-7.5,7.5s3.358,7.5,7.5,7.5h160v160c0,4.142,3.358,7.5,7.5,7.5c4.143,0,7.5-3.358,7.5-7.5V235h160   c4.143,0,7.5-3.358,7.5-7.5S399.145,220,395.002,220z"/>
	<path style="fill:#F2EBD9;" d="M227.5,90C303.316,90,365,151.684,365,227.5S303.316,365,227.5,365S90,303.316,90,227.5   S151.683,90,227.5,90z"/>
	<polygon style="fill:#98D9D5;" points="260.2,260.2 116.13,338.87 194.8,194.8 248.714,206.288  "/>
	<polygon style="fill:#F2484B;" points="338.87,116.13 260.2,260.2 194.8,194.8  "/>
</g>















</svg>
