<?xml version="1.0" encoding="iso-8859-1"?>
<!-- Generator: Adobe Illustrator 19.0.0, SVG Export Plug-In . SVG Version: 6.00 Build 0)  -->
<svg xmlns="http://www.w3.org/2000/svg" xmlns:xlink="http://www.w3.org/1999/xlink" version="1.1" id="Capa_1" x="0px" y="0px" viewBox="0 0 455 455" style="enable-background:new 0 0 455 455;" xml:space="preserve" width="512" height="512">
<g>
	<path style="fill:#98D9D5;" d="M227.5,0c-48.05,0-87,38.95-87,86.99v110.24h30V86.99c0-31.42,25.57-56.99,57-56.99   c31.42,0,56.99,25.57,56.99,56.99v110.24h30V86.99C314.49,38.95,275.54,0,227.5,0z"/>
	<path style="fill:#F2EBD9;" d="M227.5,150c84.082,0,152.5,68.418,152.5,152.5S311.582,455,227.5,455   C143.393,455,75,386.582,75,302.5S143.393,150,227.5,150z"/>
	<path style="fill:#6DA8D6;" d="M227.501,425.001c-67.547,0-122.5-54.953-122.5-122.5s54.953-122.5,122.5-122.5   s122.5,54.953,122.5,122.5S295.048,425.001,227.501,425.001z"/>
	<path style="fill:#6DA8D6;" d="M227.497,302.498L227.497,302.498L227.497,302.498z"/>
	<path style="fill:#185F8D;" d="M227.5,240c34.46,0,62.5,28.04,62.5,62.5S261.96,365,227.5,365c-34.47,0-62.5-28.04-62.5-62.5   S193.03,240,227.5,240z"/>
</g>















</svg>
