<?xml version="1.0" encoding="iso-8859-1"?>
<!-- Generator: Adobe Illustrator 19.0.0, SVG Export Plug-In . SVG Version: 6.00 Build 0)  -->
<svg xmlns="http://www.w3.org/2000/svg" xmlns:xlink="http://www.w3.org/1999/xlink" version="1.1" id="Capa_1" x="0px" y="0px" viewBox="0 0 455 455" style="enable-background:new 0 0 455 455;" xml:space="preserve" width="512" height="512">
<g>
	<polygon style="fill:#98D9D5;" points="260.65,123.639 22.892,361.397 51.176,403.824 303.076,166.066  "/>
	<polygon style="fill:#C1E8E6;" points="296.005,158.995 51.176,403.824 93.603,432.108 331.361,194.35  "/>
	<path style="fill:#185F8D;" d="M8.75,417.965l28.284,28.284c11.667,11.667,30.759,11.667,42.426,0l14.142-14.142l-70.711-70.711   L8.75,375.539C-2.917,387.206-2.917,406.298,8.75,417.965z"/>
	<path style="fill:#185F8D;" d="M437.427,17.573c-23.431-23.431-61.422-23.431-84.853,0L239.437,130.711l84.853,84.853   l113.137-113.137C460.858,78.995,460.858,41.005,437.427,17.573z"/>
	<path style="fill:#082947;" d="M392.46,62.54c-9.763-9.763-25.593-9.763-35.355,0L215.684,203.961   c-9.763,9.763-9.763,25.592,0,35.355c9.763,9.763,25.593,9.763,35.355,0L392.46,97.895C402.223,88.132,402.223,72.303,392.46,62.54   z"/>
</g>















</svg>
