<?xml version="1.0" encoding="iso-8859-1"?>
<!-- Generator: Adobe Illustrator 19.0.0, SVG Export Plug-In . SVG Version: 6.00 Build 0)  -->
<svg xmlns="http://www.w3.org/2000/svg" xmlns:xlink="http://www.w3.org/1999/xlink" version="1.1" id="Capa_1" x="0px" y="0px" viewBox="0 0 455 455" style="enable-background:new 0 0 455 455;" xml:space="preserve" width="512" height="512">
<g>
	<path style="fill:#FFCC75;" d="M247.5,193.305L227.5,0c-16.569,0-30,13.432-30,30c0,5.876,1.696,11.353,4.615,15.979   c-3.056,53.62-25.051,106.361-66.015,147.325c40.353,63.341,40.214,122.202,32.307,161.698l59.093,19.999L247.5,193.305z"/>
	<path style="fill:#F48205;" d="M318.901,193.305c-40.964-40.964-62.959-93.705-66.015-147.325   C255.804,41.353,257.5,35.876,257.5,30c0-16.568-13.431-30-30-30v375.002l59.093-20.001   C278.686,315.506,278.548,256.645,318.901,193.305z"/>
	<path style="fill:#F2EBD9;" d="M168.407,355.003c-6.195,30.942-17.157,50-17.157,50h152.5c0,0-10.962-19.058-17.157-50.002   L168.407,355.003z"/>
	<polygon style="fill:#274B6D;" points="318.75,405.003 136.25,405.003 126.25,455 328.75,455  "/>
	<circle style="fill:#F2484B;" cx="227.5" cy="193.305" r="15"/>
</g>















</svg>
