<?xml version="1.0" encoding="iso-8859-1"?>
<!-- Generator: Adobe Illustrator 19.0.0, SVG Export Plug-In . SVG Version: 6.00 Build 0)  -->
<svg xmlns="http://www.w3.org/2000/svg" xmlns:xlink="http://www.w3.org/1999/xlink" version="1.1" id="Capa_1" x="0px" y="0px" viewBox="0 0 455 455" style="enable-background:new 0 0 455 455;" xml:space="preserve" width="512" height="512">
<g>
	<path style="fill:#F2484B;" d="M98.5,164h21l20,20l-20,20h-21c-6.6,0-12-5.396-12-11.996v-16C86.5,169.404,91.9,164,98.5,164z"/>
	<path style="fill:#6DA8D6;" d="M445,274v57.5c0,33-27,60-60,60H70c-33,0-60-27-60-60V274l217.5-10L445,274z"/>
	<rect x="10" y="244" style="fill:#F2EBD9;" width="435" height="30"/>
	<path style="fill:#6DA8D6;" d="M30,179c11,0,19.31,8.97,18.47,19.94L45,244H15l-3.47-45.06C10.69,187.97,19,179,30,179z"/>
	<polygon style="fill:#98D9D5;" points="149.5,164 159.5,184 149.5,204 119.5,204 119.5,164  "/>
	<polygon style="fill:#F2EBD9;" points="445,184 397,204 387,184 397,164  "/>
	<rect x="149.5" y="164" style="fill:#FFCC75;" width="247.5" height="40"/>
	<path style="fill:#274B6D;" d="M445,106.5h-40v15h40c4.143,0,7.5-3.358,7.5-7.5S449.143,106.5,445,106.5z"/>
	<polygon style="fill:#185F8D;" points="134.5,94 144.5,114 134.5,134 86.5,124 86.5,104  "/>
	<path style="fill:#185F8D;" d="M415,106v16c0,6.6-5.4,12-12,12h-21V94h21C409.6,94,415,99.4,415,106z"/>
	<rect x="134.5" y="94" style="fill:#6DA8D6;" width="247.5" height="40"/>
	<path style="fill:#274B6D;" d="M362,63.5h-74.797c-4.143,0-7.5,3.358-7.5,7.5s3.357,7.5,7.5,7.5H362c6.893,0,12.5,5.607,12.5,12.5   v43h15V91C389.5,75.836,377.163,63.5,362,63.5z"/>
	<circle style="fill:#185F8D;" cx="373.463" cy="322.75" r="7.5"/>
	<circle style="fill:#185F8D;" cx="343.463" cy="342.75" r="7.5"/>
	<path style="fill:#185F8D;" d="M447.5,251.5H7.5c-4.143,0-7.5-3.358-7.5-7.5s3.357-7.5,7.5-7.5h440c4.143,0,7.5,3.358,7.5,7.5   S451.643,251.5,447.5,251.5z"/>
</g>















</svg>
