<?xml version="1.0" encoding="iso-8859-1"?>
<!-- Generator: Adobe Illustrator 19.0.0, SVG Export Plug-In . SVG Version: 6.00 Build 0)  -->
<svg xmlns="http://www.w3.org/2000/svg" xmlns:xlink="http://www.w3.org/1999/xlink" version="1.1" id="Capa_1" x="0px" y="0px" viewBox="0 0 455 455" style="enable-background:new 0 0 455 455;" xml:space="preserve" width="512" height="512">
<g>
	<path style="fill:#F2484B;" d="M202.5,12v21l-20,20l-20-20V12c0-6.6,5.4-12,12-12h16C197.1,0,202.5,5.4,202.5,12z"/>
	<polygon style="fill:#F2EBD9;" points="252.5,0 272.5,48 252.5,68 232.5,48  "/>
	<polygon style="fill:#6DA8D6;" points="202.502,63 182.502,83 162.502,63 162.502,33 202.502,33  "/>
	<rect x="232.5" y="48" style="fill:#6DA8D6;" width="40" height="142"/>
	<polygon style="fill:#F2EBD9;" points="112.5,0 132.5,48 112.5,68 92.5,48  "/>
	<rect x="92.5" y="48" style="fill:#FFCC75;" width="40" height="142"/>
	<rect x="162.5" y="63" style="fill:#FFCC75;" width="40" height="127"/>
	<path style="fill:#F2EBD9;" d="M333.5,200h-36v-30h-230v285h230v-60h36c29.78,0,54-24.22,54-54v-87   C387.5,224.22,363.28,200,333.5,200z M347.5,341c0,7.72-6.28,14-14,14h-36V240h36c7.72,0,14,6.28,14,14V341z"/>
</g>















</svg>
