<?xml version="1.0" encoding="iso-8859-1"?>
<!-- Generator: Adobe Illustrator 19.0.0, SVG Export Plug-In . SVG Version: 6.00 Build 0)  -->
<svg xmlns="http://www.w3.org/2000/svg" xmlns:xlink="http://www.w3.org/1999/xlink" version="1.1" id="Capa_1" x="0px" y="0px" viewBox="0 0 455 455" style="enable-background:new 0 0 455 455;" xml:space="preserve" width="512" height="512">
<g>
	<path style="fill:#98D9D5;" d="M74.434,74.434c-99.245,99.245-99.245,260.152,0,359.397L95.603,455l70.264-70.264l-21.169-21.169   l218.869-218.869l21.169,21.169L455,95.603l-21.169-21.169C334.586-24.811,173.678-24.811,74.434,74.434z M88.175,306.952   c-19.051-60.029-4.78-128.343,42.828-175.95c47.608-47.608,115.921-61.878,175.95-42.827L88.175,306.952z"/>
	<path style="fill:#6DA8D6;" d="M417.921,100.951l21.213-21.213l-5.303-5.304c-1.775-1.775-3.574-3.509-5.388-5.22l-21.129,21.129   c-2.929,2.93-2.929,7.678,0,10.607C410.243,103.878,414.991,103.878,417.921,100.951z"/>
	<path style="fill:#6DA8D6;" d="M382.948,35l-15.931,25.356c-2.204,3.508-1.146,8.138,2.36,10.341   c3.51,2.206,8.138,1.147,10.341-2.36l15.917-25.334C391.467,40.202,387.24,37.527,382.948,35z"/>
	<path style="fill:#6DA8D6;" d="M330.94,11.844l-9.882,28.249c-1.368,3.91,0.692,8.188,4.603,9.556   c3.911,1.37,8.188-0.694,9.556-4.603l9.887-28.262C340.422,14.994,335.699,13.348,330.94,11.844z"/>
	<path style="fill:#6DA8D6;" d="M271.74,30.566c-0.463,4.116,2.498,7.829,6.614,8.292c4.126,0.464,7.828-2.5,8.292-6.614   l3.343-29.71c-4.955-0.702-9.927-1.247-14.908-1.657L271.74,30.566z"/>
	<path style="fill:#6DA8D6;" d="M221.54,32.255c0.465,4.116,4.184,7.077,8.295,6.611c4.115-0.465,7.075-4.179,6.611-8.295   l-3.351-29.687c-4.981,0.412-9.954,0.957-14.909,1.661L221.54,32.255z"/>
	<path style="fill:#6DA8D6;" d="M172.975,45.073c1.368,3.91,5.646,5.974,9.557,4.6c3.909-1.368,5.969-5.647,4.6-9.557l-9.891-28.246   c-4.758,1.505-9.48,3.154-14.16,4.946L172.975,45.073z"/>
	<path style="fill:#6DA8D6;" d="M128.48,68.382c2.205,3.507,6.835,4.561,10.342,2.357c3.507-2.205,4.562-6.835,2.357-10.342   l-15.941-25.353c-4.291,2.528-8.517,5.207-12.684,8.008L128.48,68.382z"/>
	<path style="fill:#6DA8D6;" d="M69.155,79.886l21.135,21.121c2.931,2.93,7.68,2.927,10.606-0.003   c2.929-2.931,2.927-7.679-0.003-10.606L79.756,69.274c-1.792,1.691-3.569,3.406-5.323,5.159   C72.638,76.229,70.885,78.05,69.155,79.886z"/>
	<path style="fill:#6DA8D6;" d="M60.319,141.313c3.508,2.204,8.138,1.146,10.339-2.364c2.203-3.508,1.145-8.137-2.364-10.339   l-25.341-15.909c-2.799,4.169-5.471,8.397-7.996,12.689L60.319,141.313z"/>
	<path style="fill:#6DA8D6;" d="M40.07,187.28c3.91,1.369,8.188-0.695,9.554-4.606c1.366-3.91-0.696-8.188-4.606-9.554   l-28.265-9.876c-1.79,4.682-3.432,9.406-4.935,14.165L40.07,187.28z"/>
	<path style="fill:#6DA8D6;" d="M30.561,236.602c0.284,0.032,0.565,0.048,0.845,0.048c3.768,0,7.015-2.833,7.444-6.665   c0.462-4.116-2.501-7.827-6.617-8.289l-29.71-3.332c-0.7,4.955-1.245,9.927-1.653,14.908L30.561,236.602z"/>
	<path style="fill:#6DA8D6;" d="M30.579,271.897l-29.687,3.361c0.413,4.98,0.959,9.952,1.665,14.906l29.709-3.363   c4.116-0.466,7.074-4.18,6.608-8.296C38.409,274.391,34.685,271.444,30.579,271.897z"/>
	<path style="fill:#6DA8D6;" d="M40.141,321.207l-28.244,9.901c1.508,4.758,3.159,9.479,4.953,14.16l28.254-9.905   c3.908-1.371,5.967-5.65,4.597-9.56C48.329,321.895,44.05,319.84,40.141,321.207z"/>
	<path style="fill:#6DA8D6;" d="M60.438,367.153l-25.348,15.95c2.53,4.289,5.21,8.514,8.013,12.68l25.323-15.935   c3.506-2.206,4.56-6.836,2.354-10.342C68.574,366,63.941,364.945,60.438,367.153z"/>
	<path style="fill:#6DA8D6;" d="M101.058,407.422c-2.93-2.928-7.679-2.925-10.606,0.007l-21.116,21.145   c1.672,1.77,3.366,3.525,5.099,5.258l5.428,5.428c0.003-0.003,21.203-21.23,21.203-21.23   C103.991,415.098,103.988,410.349,101.058,407.422z"/>
</g>















</svg>
