<?xml version="1.0" encoding="iso-8859-1"?>
<!-- Generator: Adobe Illustrator 19.0.0, SVG Export Plug-In . SVG Version: 6.00 Build 0)  -->
<svg xmlns="http://www.w3.org/2000/svg" xmlns:xlink="http://www.w3.org/1999/xlink" version="1.1" id="Capa_1" x="0px" y="0px" viewBox="0 0 455 455" style="enable-background:new 0 0 455 455;" xml:space="preserve" width="512" height="512">
<g>
	<polygon style="fill:#98D9D5;" points="375,202.5 375,252.5 455,242.5 455,212.5  "/>
	<polygon style="fill:#C1E8E6;" points="375,282.5 455,272.5 455,242.5 375,242.5  "/>
	<polygon style="fill:#C1E8E6;" points="455,182.5 375,172.5 375,212.5 455,212.5  "/>
	<polygon style="fill:#6DA8D6;" points="0,152.5 0,302.5 60,312.5 70,227.5 60,142.5  "/>
	<polygon style="fill:#6DA8D6;" points="90,142.5 80,227.5 90,312.5 305,312.5 315,227.5 305,142.5  "/>
	<path style="fill:#274B6D;" d="M254.546,231.534l-26.248-20c-2.685-2.045-6.408-2.045-9.093,0l-21.709,16.537l-21.704-16.537   c-2.685-2.045-6.406-2.045-9.091,0l-26.248,20c-3.294,2.511-3.93,7.217-1.419,10.512c2.51,3.294,7.217,3.929,10.511,1.42   l21.701-16.537l21.703,16.537c2.685,2.044,6.405,2.046,9.09,0l21.708-16.537l21.706,16.537c3.294,2.509,8.001,1.874,10.511-1.42   C258.476,238.751,257.84,234.045,254.546,231.534z"/>
	<polygon style="fill:#185F8D;" points="375,272.5 395,312.5 455,302.5 455,272.5  "/>
	<polygon style="fill:#185F8D;" points="395,142.5 375,182.501 455,182.5 455,152.5  "/>
	<polygon style="fill:#6DA8D6;" points="335,142.5 325,227.5 335,312.5 395,312.5 395,142.5  "/>
	<rect x="60" y="142.5" style="fill:#FFCC75;" width="30" height="170"/>
	<rect x="305" y="142.5" style="fill:#FFCC75;" width="30" height="170"/>
	<polygon style="fill:#98D9D5;" points="80,52.5 80,102.5 0,92.5 0,62.5  "/>
	<polygon style="fill:#C1E8E6;" points="80,132.5 0,122.5 0,92.5 80,92.5  "/>
	<polygon style="fill:#C1E8E6;" points="0,32.5 80,22.5 80,62.5 0,62.5  "/>
	<polygon style="fill:#FF6E1D;" points="455,2.5 455,152.5 395,152.5 385,77.5 395,2.5  "/>
	<polygon style="fill:#FF6E1D;" points="365,2.5 375,77.5 365,152.5 150,152.5 140,77.5 150,2.5  "/>
	<path style="fill:#274B6D;" d="M200.454,81.534l26.248-20c2.685-2.045,6.408-2.045,9.093,0l21.709,16.537l21.704-16.537   c2.685-2.045,6.406-2.045,9.091,0l26.248,20c3.294,2.511,3.93,7.217,1.419,10.512c-2.51,3.294-7.217,3.929-10.511,1.42   l-21.701-16.537L262.05,93.466c-2.685,2.044-6.405,2.046-9.09,0l-21.708-16.537l-21.706,16.537   c-3.294,2.509-8.001,1.874-10.511-1.42C196.524,88.751,197.16,84.045,200.454,81.534z"/>
	<polygon style="fill:#F2484B;" points="80,122.5 60,152.5 0,152.5 0,122.5  "/>
	<polygon style="fill:#F2484B;" points="60,2.5 80,32.501 0,32.5 0,2.5  "/>
	<polygon style="fill:#FF6E1D;" points="120,2.5 130,77.5 120,152.5 60,152.5 60,2.5  "/>
	<rect x="365" y="2.5" style="fill:#FFCC75;" width="30" height="150"/>
	<rect x="120" y="2.5" style="fill:#FFCC75;" width="30" height="150"/>
	<polygon style="fill:#98D9D5;" points="80,352.5 80,402.5 0,392.5 0,362.5  "/>
	<polygon style="fill:#C1E8E6;" points="80,432.5 0,422.5 0,392.5 80,392.5  "/>
	<polygon style="fill:#C1E8E6;" points="0,332.5 80,322.5 80,362.5 0,362.5  "/>
	<polygon style="fill:#F2484B;" points="455,302.5 455,452.5 395,452.5 385,377.5 395,302.5  "/>
	<polygon style="fill:#F2484B;" points="365,302.5 375,377.5 365,452.5 150,452.5 140,377.5 150,302.5  "/>
	<path style="fill:#274B6D;" d="M200.454,381.534l26.248-20c2.685-2.045,6.408-2.045,9.093,0l21.709,16.537l21.704-16.537   c2.685-2.045,6.406-2.045,9.091,0l26.248,20c3.294,2.511,3.93,7.217,1.419,10.512c-2.51,3.294-7.217,3.929-10.511,1.42   l-21.701-16.537l-21.703,16.537c-2.685,2.044-6.405,2.046-9.09,0l-21.708-16.537l-21.706,16.537   c-3.294,2.509-8.001,1.874-10.511-1.42C196.524,388.751,197.16,384.045,200.454,381.534z"/>
	<polygon style="fill:#BD1515;" points="80,422.5 60,452.5 0,452.5 0,422.5  "/>
	<polygon style="fill:#BD1515;" points="60,302.5 80,332.501 0,332.5 0,302.5  "/>
	<polygon style="fill:#F2484B;" points="120,302.5 130,377.5 120,452.5 60,452.5 60,302.5  "/>
	<rect x="365" y="302.5" style="fill:#FFCC75;" width="30" height="150"/>
	<rect x="120" y="302.5" style="fill:#FFCC75;" width="30" height="150"/>
</g>















</svg>
