<?xml version="1.0" encoding="iso-8859-1"?>
<!-- Generator: Adobe Illustrator 19.0.0, SVG Export Plug-In . SVG Version: 6.00 Build 0)  -->
<svg xmlns="http://www.w3.org/2000/svg" xmlns:xlink="http://www.w3.org/1999/xlink" version="1.1" id="Capa_1" x="0px" y="0px" viewBox="0 0 455 455" style="enable-background:new 0 0 455 455;" xml:space="preserve" width="512" height="512">
<g>
	<path style="fill:#274B6D;" d="M205.362,3.445c-2.93-2.928-7.678-2.929-10.607,0.001c-2.929,2.929-2.928,7.678,0,10.606   C211.035,30.329,220,51.971,220,74.992v10h15v-10C235,47.964,224.474,22.555,205.362,3.445z"/>
	<path style="fill:#F2484B;" d="M299.015,64.461c-24.791-10.267-52.084-5.318-71.515,10.53   c-19.431-15.849-46.724-20.797-71.515-10.53c-34.904,14.462-52.007,53.756-39.295,88.932c4.454,12.329,49.373,99.206,49.373,99.206   c9.27,17.891,30.861,26.01,49.826,18.155c4.405-1.826,8.301-4.363,11.611-7.423c3.311,3.06,7.207,5.597,11.611,7.423   c18.964,7.854,40.563-0.265,49.826-18.163c0,0,44.919-86.869,49.373-99.191C351.022,118.224,333.925,78.923,299.015,64.461z"/>
	<circle style="fill:#BD1515;" cx="157.971" cy="134.587" r="7.5"/>
	<circle style="fill:#BD1515;" cx="187.971" cy="104.587" r="7.5"/>
	<polygon style="fill:#98D9D5;" points="375,353.751 375,403.751 455,393.751 455,363.751  "/>
	<polygon style="fill:#C1E8E6;" points="375,433.751 455,423.751 455,393.751 375,393.751  "/>
	<polygon style="fill:#C1E8E6;" points="455,333.751 375,323.751 375,363.751 455,363.751  "/>
	<polygon style="fill:#6DA8D6;" points="0,303.751 0,453.751 60,453.751 70,378.751 60,303.751  "/>
	<polygon style="fill:#6DA8D6;" points="90,303.751 80,378.751 90,453.751 305,453.751 315,378.751 305,303.751  "/>
	<path style="fill:#274B6D;" d="M254.546,382.785l-26.248-20c-2.685-2.045-6.408-2.045-9.093,0l-21.709,16.537l-21.704-16.537   c-2.685-2.045-6.406-2.045-9.091,0l-26.248,20c-3.294,2.511-3.93,7.217-1.419,10.512c2.51,3.294,7.217,3.929,10.511,1.42   l21.701-16.537l21.703,16.537c2.685,2.044,6.405,2.046,9.09,0l21.708-16.537l21.706,16.537c3.294,2.509,8.001,1.874,10.511-1.42   C258.476,390.002,257.84,385.296,254.546,382.785z"/>
	<polygon style="fill:#185F8D;" points="375,423.751 395,453.751 455,453.751 455,423.751  "/>
	<polygon style="fill:#185F8D;" points="395,303.751 375,333.752 455,333.751 455,303.751  "/>
	<polygon style="fill:#6DA8D6;" points="335,303.751 325,378.751 335,453.751 395,453.751 395,303.751  "/>
	<rect x="60" y="303.751" style="fill:#FFCC75;" width="30" height="150"/>
	<rect x="305" y="303.751" style="fill:#FFCC75;" width="30" height="150"/>
</g>















</svg>
