<?xml version="1.0" encoding="iso-8859-1"?>
<!-- Generator: Adobe Illustrator 19.0.0, SVG Export Plug-In . SVG Version: 6.00 Build 0)  -->
<svg xmlns="http://www.w3.org/2000/svg" xmlns:xlink="http://www.w3.org/1999/xlink" version="1.1" id="Capa_1" x="0px" y="0px" viewBox="0 0 455 455" style="enable-background:new 0 0 455 455;" xml:space="preserve" width="512" height="512">
<g>
	<path style="fill:#FFCC75;" d="M425.72,209.77L355,193.96L335,122h20c0-16.5-13.5-30-30-30H30c-16.5,0-30,13.5-30,30h17.191   L0,223.96V328h455v-81.69C455,229.81,441.83,213.37,425.72,209.77z"/>
	<polygon style="fill:#C1E8E6;" points="325,122 315,193.96 355,193.96 355,122  "/>
	<circle style="fill:#185F8D;" cx="75" cy="328" r="35"/>
	<circle style="fill:#185F8D;" cx="390" cy="328" r="35"/>
	<polygon style="fill:#98D9D5;" points="65,122 0,122 0,193.96 75,203.96  "/>
	<polygon style="fill:#C1E8E6;" points="61.25,203.96 140,203.96 130,122 61.25,122  "/>
	<polygon style="fill:#98D9D5;" points="195,122 130,122 130,203.96 208.75,203.96  "/>
	<polygon style="fill:#C1E8E6;" points="198.75,122 198.75,203.96 270,203.96 260,122  "/>
	<path style="fill:#FF6E1D;" d="M435,238.81c-4.143,0-7.5,3.358-7.5,7.5s3.357,7.5,7.5,7.5h20v-15H435z"/>
	<path style="fill:#FF6E1D;" d="M435,268.81c-4.143,0-7.5,3.358-7.5,7.5s3.357,7.5,7.5,7.5h20v-15H435z"/>
	<rect y="193.96" style="fill:#FFCC75;" width="305" height="30.001"/>
	<rect x="260" y="122" style="fill:#98D9D5;" width="65" height="206"/>
</g>















</svg>
