<?xml version="1.0" encoding="iso-8859-1"?>
<!-- Generator: Adobe Illustrator 19.0.0, SVG Export Plug-In . SVG Version: 6.00 Build 0)  -->
<svg xmlns="http://www.w3.org/2000/svg" xmlns:xlink="http://www.w3.org/1999/xlink" version="1.1" id="Capa_1" x="0px" y="0px" viewBox="0 0 455 455" style="enable-background:new 0 0 455 455;" xml:space="preserve" width="512" height="512">
<g>
	<path style="fill:#185F8D;" d="M227.5,0l-30,227.5l30,227.5C353.14,455,455,353.14,455,227.5S353.14,0,227.5,0z"/>
	<path style="fill:#FFCC75;" d="M227.5,30l-30,197.5l30,197.5C336.4,425,425,336.4,425,227.5S336.4,30,227.5,30z"/>
	<path style="fill:#FF6E1D;" d="M227.5,113.75l-30,113.75l30,113.75c62.72,0,113.75-51.03,113.75-113.75   C341.25,164.78,290.22,113.75,227.5,113.75z"/>
	<path style="fill:#F2484B;" d="M227.5,175.5c28.72,0,52,23.28,52,52s-23.28,52-52,52v-52V175.5z"/>
	<path style="fill:#98D9D5;" d="M113.75,187.5L0,227.5c0,67.954,29.804,128.938,77.042,170.625l78.253-17.395L113.75,187.5z"/>
	<path style="fill:#98D9D5;" d="M77.042,56.875l58.253,77.395L227.5,0C169.81,0,117.145,21.485,77.042,56.875z"/>
	<path style="fill:#6DA8D6;" d="M77.042,56.875C29.804,98.562,0,159.546,0,227.5h113.75l21.546-133.23   C113.948,84.79,94.326,72.128,77.042,56.875z"/>
	<path style="fill:#6DA8D6;" d="M135.295,360.73c-21.347,9.48-40.969,22.142-58.253,37.395C117.145,433.515,169.81,455,227.5,455   L135.295,360.73z"/>
	<path style="fill:#185F8D;" d="M135.296,94.27c-13.552,37.449-21.546,83.469-21.546,133.23l56.875,20l56.875-20V113.75   L135.296,94.27z"/>
	<path style="fill:#6DA8D6;" d="M135.296,94.27c28.184,12.516,59.378,19.48,92.204,19.48V0C189.558,0,155.961,37.162,135.296,94.27z   "/>
	<path style="fill:#6DA8D6;" d="M113.75,227.5c0,49.761,7.994,95.782,21.545,133.23l92.205-19.48V227.5H113.75z"/>
	<path style="fill:#185F8D;" d="M227.5,455V341.25c-32.826,0-64.021,6.964-92.205,19.48C155.961,417.838,189.558,455,227.5,455z"/>
</g>















</svg>
