<?xml version="1.0" encoding="iso-8859-1"?>
<!-- Generator: Adobe Illustrator 19.0.0, SVG Export Plug-In . SVG Version: 6.00 Build 0)  -->
<svg xmlns="http://www.w3.org/2000/svg" xmlns:xlink="http://www.w3.org/1999/xlink" version="1.1" id="Capa_1" x="0px" y="0px" viewBox="0 0 455 455" style="enable-background:new 0 0 455 455;" xml:space="preserve" width="512" height="512">
<g>
	<path style="fill:#F2484B;" d="M400.99,333.36c-68.96-73.011-71.83-185.63-8.64-261.95L390,0h-72.98L227.5,40L157.02,0H65   l-2.35,71.41c63.19,76.32,60.32,188.939-8.64,261.95L50,455h355L400.99,333.36z"/>
	<path style="fill:#BD1515;" d="M187.02,0l10,193.715l-10,193.715c-18.29-14.65-30-37.17-30-62.43c0-44.18,0-325,0-325H187.02z"/>
	<path style="fill:#6DA8D6;" d="M187.02,0v387.43c8.69,6.99,18.87,12.181,30,15.051l10-201.24L217.02,0H187.02z"/>
	<path style="fill:#98D9D5;" d="M217.02,0v402.48c6.39,1.64,13.09,2.52,20,2.52c44.18,0,80-35.82,80-80s0-325,0-325H217.02z"/>
	<circle style="fill:#185F8D;" cx="267.019" cy="202.178" r="20"/>
</g>















</svg>
