<?xml version="1.0" encoding="iso-8859-1"?>
<!-- Generator: Adobe Illustrator 19.0.0, SVG Export Plug-In . SVG Version: 6.00 Build 0)  -->
<svg xmlns="http://www.w3.org/2000/svg" xmlns:xlink="http://www.w3.org/1999/xlink" version="1.1" id="Capa_1" x="0px" y="0px" viewBox="0 0 462.5 462.5" style="enable-background:new 0 0 462.5 462.5;" xml:space="preserve" width="512" height="512">
<g>
	<path style="fill:#98D9D5;" d="M7.5,248.75c-4.142,0-7.5,3.357-7.5,7.5s3.358,7.5,7.5,7.5h40v-15H7.5z"/>
	<rect x="132.5" y="206.25" style="fill:#98D9D5;" width="300" height="55"/>
	<path style="fill:#C1E8E6;" d="M217.5,291.25h-45c-16.5,0-30-13.5-30-30v-45l-105-20v145l210-20   C247.5,304.75,234,291.25,217.5,291.25z"/>
	<path style="fill:#C1E8E6;" d="M425,206.25v85c0,4.143,3.357,7.5,7.5,7.5s7.5-3.357,7.5-7.5v-85H425z"/>
	<path style="fill:#F2484B;" d="M27.5,321.25v15c0,16.5,13.5,30,30,30h375c16.5,0,30-13.5,30-30v-15H27.5z"/>
	<path style="fill:#F2484B;" d="M342.5,96.25L42.12,141.08C23.08,143.92,7.5,162,7.5,181.25v35h455   C462.5,149.98,408.77,96.25,342.5,96.25z"/>
	<circle style="fill:#185F8D;" cx="90" cy="261.25" r="15"/>
</g>















</svg>
