<?xml version="1.0" encoding="iso-8859-1"?>
<!-- Generator: Adobe Illustrator 19.0.0, SVG Export Plug-In . SVG Version: 6.00 Build 0)  -->
<svg xmlns="http://www.w3.org/2000/svg" xmlns:xlink="http://www.w3.org/1999/xlink" version="1.1" id="Capa_1" x="0px" y="0px" viewBox="0 0 455 455" style="enable-background:new 0 0 455 455;" xml:space="preserve" width="512" height="512">
<g>
	<rect x="130" y="2.499" style="fill:#F2EBD9;" width="195" height="145.39"/>
	<path style="fill:#082947;" d="M325,100.39H130c-4.143,0-7.5,3.358-7.5,7.5v50h15v-42.5h180v42.5h15v-50   C332.5,103.748,329.143,100.39,325,100.39z"/>
	<path style="fill:#98D9D5;" d="M417.72,224.779L375,147.89l-147.5-10l-147.5,10l-42.72,76.89c-4,7.21-7.28,19.86-7.28,28.11v69.61   h395v-69.61C425,244.64,421.72,231.99,417.72,224.779z"/>
	<path style="fill:#185F8D;" d="M375,87.89h-20v45H100v-45H80c-11,0-20,9-20,20v20c0,11,9,20,20,20h295c11,0,20-9,20-20v-20   C395,96.89,386,87.89,375,87.89z"/>
	<polygon style="fill:#98D9D5;" points="375,352.5 375,402.5 455,392.5 455,362.5  "/>
	<polygon style="fill:#C1E8E6;" points="375,432.5 455,422.5 455,392.5 375,392.5  "/>
	<polygon style="fill:#C1E8E6;" points="455,332.5 375,322.5 375,362.5 455,362.5  "/>
	<polygon style="fill:#6DA8D6;" points="0,302.501 0,452.501 60,452.501 70,377.501 60,302.501  "/>
	<polygon style="fill:#6DA8D6;" points="90,302.501 80,377.501 90,452.501 305,452.501 315,377.501 305,302.501  "/>
	<path style="fill:#274B6D;" d="M254.546,381.535l-26.248-20c-2.685-2.045-6.408-2.045-9.093,0l-21.709,16.537l-21.704-16.537   c-2.685-2.045-6.406-2.045-9.091,0l-26.248,20c-3.294,2.511-3.93,7.217-1.419,10.512c2.51,3.294,7.217,3.929,10.511,1.42   l21.701-16.537l21.703,16.537c2.685,2.044,6.405,2.046,9.09,0l21.708-16.537l21.706,16.537c3.294,2.509,8.001,1.874,10.511-1.42   C258.476,388.751,257.84,384.045,254.546,381.535z"/>
	<polygon style="fill:#185F8D;" points="375,422.5 395,452.5 455,452.5 455,422.5  "/>
	<polygon style="fill:#185F8D;" points="395,302.5 375,332.501 455,332.5 455,302.5  "/>
	<polygon style="fill:#6DA8D6;" points="335,302.5 325,377.5 335,452.5 395,452.5 395,302.5  "/>
	<rect x="60" y="302.501" style="fill:#FFCC75;" width="30" height="150"/>
	<rect x="305" y="302.501" style="fill:#FFCC75;" width="30" height="150"/>
	<polygon style="fill:#185F8D;" points="350.441,177.89 104.559,177.89 92.242,207.89 362.758,207.89  "/>
	<polygon style="fill:#6DA8D6;" points="338.125,147.89 116.875,147.89 104.559,177.89 350.441,177.89  "/>
	<path style="fill:#6DA8D6;" d="M179.945,228.239c-0.396,0.713-0.762,4.82-1.062,9.65h97.234c-0.3-4.83-0.667-8.938-1.062-9.65   l-2.705-20.35h-89.7L179.945,228.239z"/>
</g>















</svg>
