<?xml version="1.0" encoding="iso-8859-1"?>
<!-- Generator: Adobe Illustrator 19.0.0, SVG Export Plug-In . SVG Version: 6.00 Build 0)  -->
<svg xmlns="http://www.w3.org/2000/svg" xmlns:xlink="http://www.w3.org/1999/xlink" version="1.1" id="Capa_1" x="0px" y="0px" viewBox="0 0 455 455" style="enable-background:new 0 0 455 455;" xml:space="preserve" width="512" height="512">
<g>
	<path style="fill:#6DA8D6;" d="M425,90.531l-197.5,20l-197.5-20H0v321.53h198.77c2.17,0,3.35,1.42,3.75,2.03l8.91,10.38h32.15   l8.9-10.39c0.4-0.6,1.58-2.02,3.75-2.02H455V90.531H425z"/>
	<path style="fill:#C1E8E6;" d="M30,352.061v30h168.77c11.99,0,22.55,6.12,28.73,15.41l10-70L30,352.061z"/>
	<path style="fill:#98D9D5;" d="M227.5,327.471v70c6.18-9.29,16.74-15.41,28.73-15.41H425v-30L227.5,327.471z"/>
	<rect x="341.25" y="60.531" style="fill:#F2EBD9;" width="53.75" height="55.76"/>
	<rect x="257.5" y="60.531" style="fill:#F2EBD9;" width="53.75" height="55.76"/>
	<rect x="341.25" y="206.291" style="fill:#F2EBD9;" width="53.75" height="55.77"/>
	<rect x="257.5" y="206.291" style="fill:#F2EBD9;" width="53.75" height="55.77"/>
	<rect x="143.75" y="206.291" style="fill:#F2EBD9;" width="53.75" height="55.77"/>
	<rect x="60" y="206.291" style="fill:#F2EBD9;" width="53.75" height="55.77"/>
	<rect x="143.75" y="60.531" style="fill:#F2EBD9;" width="53.75" height="55.76"/>
	<rect x="60" y="60.531" style="fill:#F2EBD9;" width="53.75" height="55.76"/>
	<path style="fill:#F2EBD9;" d="M198.767,30.529H30v321.535h168.767c11.99,0,22.555,6.122,28.733,15.409l20-160.76l-20-160.76   C221.323,36.658,210.763,30.529,198.767,30.529z"/>
	<path style="fill:#FFFFFF;" d="M256.233,30.529c-11.996,0-22.557,6.129-28.733,15.423v321.52   c6.177-9.289,16.742-15.409,28.733-15.409H425V30.529H256.233z"/>
	<rect x="143.75" y="60.529" style="fill:#FFFFFF;" width="53.75" height="55.767"/>
	<rect x="60" y="60.529" style="fill:#FFFFFF;" width="53.75" height="55.767"/>
	<rect x="143.75" y="206.296" style="fill:#FFFFFF;" width="53.75" height="55.768"/>
	<rect x="60" y="206.296" style="fill:#FFFFFF;" width="53.75" height="55.768"/>
	<path style="fill:#6DA8D6;" d="M190,153.796h-38.75c-4.142,0-7.5-3.358-7.5-7.5s3.358-7.5,7.5-7.5H190c4.142,0,7.5,3.358,7.5,7.5   S194.142,153.796,190,153.796z"/>
	<path style="fill:#6DA8D6;" d="M190,299.563h-38.75c-4.142,0-7.5-3.358-7.5-7.5s3.358-7.5,7.5-7.5H190c4.142,0,7.5,3.358,7.5,7.5   S194.142,299.563,190,299.563z"/>
	<path style="fill:#6DA8D6;" d="M106.25,299.563H67.5c-4.142,0-7.5-3.358-7.5-7.5s3.358-7.5,7.5-7.5h38.75   c4.142,0,7.5,3.358,7.5,7.5S110.392,299.563,106.25,299.563z"/>
	<path style="fill:#6DA8D6;" d="M163.125,183.796H151.25c-4.142,0-7.5-3.358-7.5-7.5s3.358-7.5,7.5-7.5h11.875   c4.142,0,7.5,3.358,7.5,7.5S167.267,183.796,163.125,183.796z"/>
	<path style="fill:#6DA8D6;" d="M106.25,153.796H67.5c-4.142,0-7.5-3.358-7.5-7.5s3.358-7.5,7.5-7.5h38.75   c4.142,0,7.5,3.358,7.5,7.5S110.392,153.796,106.25,153.796z"/>
	<path style="fill:#6DA8D6;" d="M79.375,183.796H67.5c-4.142,0-7.5-3.358-7.5-7.5s3.358-7.5,7.5-7.5h11.875   c4.142,0,7.5,3.358,7.5,7.5S83.517,183.796,79.375,183.796z"/>
	<path style="fill:#6DA8D6;" d="M163.125,329.563H151.25c-4.142,0-7.5-3.358-7.5-7.5s3.358-7.5,7.5-7.5h11.875   c4.142,0,7.5,3.358,7.5,7.5S167.267,329.563,163.125,329.563z"/>
	<path style="fill:#6DA8D6;" d="M79.375,329.563H67.5c-4.142,0-7.5-3.358-7.5-7.5s3.358-7.5,7.5-7.5h11.875   c4.142,0,7.5,3.358,7.5,7.5S83.517,329.563,79.375,329.563z"/>
	<rect x="341.25" y="60.529" style="fill:#F2EBD9;" width="53.75" height="55.767"/>
	<rect x="257.5" y="60.529" style="fill:#F2EBD9;" width="53.75" height="55.767"/>
	<rect x="341.25" y="206.296" style="fill:#F2EBD9;" width="53.75" height="55.768"/>
	<rect x="257.5" y="206.296" style="fill:#F2EBD9;" width="53.75" height="55.768"/>
	<path style="fill:#6DA8D6;" d="M387.5,153.796h-38.75c-4.143,0-7.5-3.358-7.5-7.5s3.357-7.5,7.5-7.5h38.75   c4.143,0,7.5,3.358,7.5,7.5S391.643,153.796,387.5,153.796z"/>
	<path style="fill:#6DA8D6;" d="M303.75,153.796H265c-4.143,0-7.5-3.358-7.5-7.5s3.357-7.5,7.5-7.5h38.75c4.143,0,7.5,3.358,7.5,7.5   S307.893,153.796,303.75,153.796z"/>
	<path style="fill:#6DA8D6;" d="M387.5,299.563h-38.75c-4.143,0-7.5-3.358-7.5-7.5s3.357-7.5,7.5-7.5h38.75   c4.143,0,7.5,3.358,7.5,7.5S391.643,299.563,387.5,299.563z"/>
	<path style="fill:#6DA8D6;" d="M303.75,299.563H265c-4.143,0-7.5-3.358-7.5-7.5s3.357-7.5,7.5-7.5h38.75c4.143,0,7.5,3.358,7.5,7.5   S307.893,299.563,303.75,299.563z"/>
	<path style="fill:#6DA8D6;" d="M360.625,183.796H348.75c-4.143,0-7.5-3.358-7.5-7.5s3.357-7.5,7.5-7.5h11.875   c4.143,0,7.5,3.358,7.5,7.5S364.768,183.796,360.625,183.796z"/>
	<path style="fill:#6DA8D6;" d="M276.875,183.796H265c-4.143,0-7.5-3.358-7.5-7.5s3.357-7.5,7.5-7.5h11.875   c4.143,0,7.5,3.358,7.5,7.5S281.018,183.796,276.875,183.796z"/>
	<path style="fill:#6DA8D6;" d="M360.625,329.563H348.75c-4.143,0-7.5-3.358-7.5-7.5s3.357-7.5,7.5-7.5h11.875   c4.143,0,7.5,3.358,7.5,7.5S364.768,329.563,360.625,329.563z"/>
	<path style="fill:#6DA8D6;" d="M276.875,329.563H265c-4.143,0-7.5-3.358-7.5-7.5s3.357-7.5,7.5-7.5h11.875   c4.143,0,7.5,3.358,7.5,7.5S281.018,329.563,276.875,329.563z"/>
</g>















</svg>
